<svg width="15" height="14" viewBox="0 0 15 14" fill="none" xmlns="http://www.w3.org/2000/svg">
<path d="M7.61475 0C3.75499 0 0.614746 3.14024 0.614746 7C0.614746 10.8598 3.75499 14 7.61475 14C11.4745 14 14.6147 10.8598 14.6147 7C14.6147 3.14024 11.4745 0 7.61475 0ZM10.1492 8.77322C10.2013 8.82273 10.243 8.88216 10.2718 8.94802C10.3005 9.01388 10.3158 9.08484 10.3168 9.1567C10.3177 9.22857 10.3042 9.29989 10.2771 9.36647C10.25 9.43304 10.2099 9.49352 10.1591 9.54434C10.1083 9.59517 10.0478 9.6353 9.98121 9.66238C9.91464 9.68946 9.84331 9.70293 9.77145 9.70201C9.69958 9.70109 9.62863 9.68579 9.56277 9.65702C9.49691 9.62825 9.43747 9.58658 9.38797 9.53447L7.61475 7.76159L5.84153 9.53447C5.73972 9.63119 5.60417 9.68431 5.46375 9.68252C5.32334 9.68072 5.18919 9.62414 5.0899 9.52485C4.99061 9.42556 4.93403 9.2914 4.93223 9.15099C4.93043 9.01058 4.98356 8.87502 5.08028 8.77322L6.85316 7L5.08028 5.22678C4.98356 5.12498 4.93043 4.98942 4.93223 4.84901C4.93403 4.7086 4.99061 4.57445 5.0899 4.47515C5.18919 4.37586 5.32334 4.31928 5.46375 4.31748C5.60417 4.31569 5.73972 4.36881 5.84153 4.46553L7.61475 6.23841L9.38797 4.46553C9.48977 4.36881 9.62533 4.31569 9.76574 4.31748C9.90615 4.31928 10.0403 4.37586 10.1396 4.47515C10.2389 4.57445 10.2955 4.7086 10.2973 4.84901C10.2991 4.98942 10.2459 5.12498 10.1492 5.22678L8.37633 7L10.1492 8.77322Z" fill="#D9D9D9"/>
</svg>
