<svg width="14" height="14" viewBox="0 0 14 14" fill="none" xmlns="http://www.w3.org/2000/svg">
<path d="M7 0C3.14024 0 0 3.14024 0 7C0 10.8598 3.14024 14 7 14C10.8598 14 14 10.8598 14 7C14 3.14024 10.8598 0 7 0ZM7 10.7662C6.86688 10.7662 6.73675 10.7267 6.62606 10.6528C6.51537 10.5788 6.4291 10.4737 6.37816 10.3507C6.32721 10.2277 6.31389 10.0924 6.33986 9.96181C6.36583 9.83125 6.42993 9.71132 6.52406 9.61719C6.61819 9.52306 6.73813 9.45895 6.86869 9.43298C6.99925 9.40701 7.13459 9.42034 7.25758 9.47128C7.38056 9.52223 7.48568 9.6085 7.55964 9.71918C7.6336 9.82987 7.67308 9.96 7.67308 10.0931C7.67308 10.2716 7.60216 10.4428 7.47594 10.5691C7.34971 10.6953 7.17851 10.7662 7 10.7662ZM7.73096 3.99673L7.53779 8.1025C7.53779 8.24531 7.48106 8.38227 7.38008 8.48325C7.2791 8.58423 7.14214 8.64096 6.99933 8.64096C6.85652 8.64096 6.71956 8.58423 6.61858 8.48325C6.5176 8.38227 6.46087 8.24531 6.46087 8.1025L6.26769 3.99875V3.99707C6.26346 3.89844 6.27923 3.79997 6.31405 3.7076C6.34888 3.61522 6.40204 3.53085 6.47033 3.45956C6.53863 3.38827 6.62064 3.33155 6.71144 3.29279C6.80223 3.25404 6.89993 3.23406 6.99865 3.23406C7.09738 3.23406 7.19508 3.25404 7.28587 3.29279C7.37667 3.33155 7.45868 3.38827 7.52697 3.45956C7.59527 3.53085 7.64843 3.61522 7.68325 3.7076C7.71808 3.79997 7.73385 3.89844 7.72962 3.99707L7.73096 3.99673Z" fill="#F56767"/>
</svg>
