<svg width="25" height="25" viewBox="0 0 25 25" fill="none" xmlns="http://www.w3.org/2000/svg">
<path d="M12.5 0C5.60757 0 0 5.60757 0 12.5C0 19.3924 5.60757 25 12.5 25C19.3924 25 25 19.3924 25 12.5C25 5.60757 19.3924 0 12.5 0ZM17.0258 15.6665C17.1189 15.7549 17.1933 15.861 17.2447 15.9786C17.2961 16.0962 17.3234 16.2229 17.325 16.3512C17.3267 16.4796 17.3026 16.6069 17.2542 16.7258C17.2059 16.8447 17.1342 16.9527 17.0435 17.0435C16.9527 17.1342 16.8447 17.2059 16.7258 17.2542C16.6069 17.3026 16.4796 17.3267 16.3512 17.325C16.2229 17.3234 16.0962 17.2961 15.9786 17.2447C15.861 17.1933 15.7549 17.1189 15.6665 17.0258L12.5 13.86L9.33353 17.0258C9.15174 17.1986 8.90968 17.2934 8.65894 17.2902C8.40821 17.287 8.16865 17.186 7.99134 17.0087C7.81403 16.8313 7.713 16.5918 7.70979 16.3411C7.70658 16.0903 7.80145 15.8483 7.97416 15.6665L11.14 12.5L7.97416 9.33353C7.80145 9.15174 7.70658 8.90968 7.70979 8.65894C7.713 8.40821 7.81403 8.16865 7.99134 7.99134C8.16865 7.81403 8.40821 7.713 8.65894 7.70979C8.90968 7.70658 9.15174 7.80145 9.33353 7.97416L12.5 11.14L15.6665 7.97416C15.8483 7.80145 16.0903 7.70658 16.3411 7.70979C16.5918 7.713 16.8313 7.81403 17.0087 7.99134C17.186 8.16865 17.287 8.40821 17.2902 8.65894C17.2934 8.90968 17.1986 9.15174 17.0258 9.33353L13.86 12.5L17.0258 15.6665Z" fill="#D9D9D9"/>
</svg>
