<svg width="15" height="16" viewBox="0 0 15 16" fill="none" xmlns="http://www.w3.org/2000/svg">
<path d="M2.06152 3.12738L2.06153 14.0648C2.09697 14.7546 2.59871 15.2586 3.25527 15.2586H7.43338H11.6115C12.2707 15.2586 12.7631 14.7546 12.8052 14.0648V3.12738" stroke="#A0A0A0" stroke-width="1.3" stroke-linecap="round" stroke-linejoin="round"/>
<path d="M0.868164 3.12738H13.9994H0.868164Z" fill="black"/>
<path d="M0.868164 3.12738H13.9994" stroke="#A0A0A0" stroke-width="1.3" stroke-miterlimit="10" stroke-linecap="round"/>
<path d="M5.0459 3.12894V1.63675C5.04556 1.51908 5.06848 1.40251 5.11335 1.29373C5.15822 1.18495 5.22416 1.08611 5.30736 1.00291C5.39057 0.919699 5.4894 0.853764 5.59818 0.808893C5.70696 0.764022 5.82354 0.741099 5.94121 0.741444H8.92558C9.04325 0.741099 9.15982 0.764022 9.2686 0.808893C9.37738 0.853764 9.47622 0.919699 9.55943 1.00291C9.64263 1.08611 9.70857 1.18495 9.75344 1.29373C9.79831 1.40251 9.82123 1.51908 9.82089 1.63675V3.12894M5.74747 6.51643V11.8727M9.11932 6.51643V11.8727" stroke="#A0A0A0" stroke-width="1.3" stroke-linecap="round" stroke-linejoin="round"/>
</svg>
