<svg width="40" height="40" viewBox="0 0 40 40" fill="none" xmlns="http://www.w3.org/2000/svg">
<g clip-path="url(#clip0_967_8635)">
<path d="M20 40C31.0457 40 40 31.0457 40 20C40 8.95431 31.0457 0 20 0C8.95431 0 0 8.95431 0 20C0 31.0457 8.95431 40 20 40Z" fill="#EEF2FA"/>
<path d="M31.5538 18.6925C31.5538 15.7457 28.875 13.3497 25.5389 13.277C24.7888 11.0279 22.4224 9.38477 19.6184 9.38477C16.8144 9.38477 14.4238 11.0454 13.6857 13.312C10.3457 13.3807 7.66016 15.778 7.66016 18.7275C7.66016 20.3114 8.43457 21.7363 9.66824 22.7275C9.31942 23.4077 9.12278 24.1605 9.12278 24.9538C9.12278 27.9464 11.8851 30.3733 15.2938 30.3733C16.9773 30.3733 18.5033 29.7807 19.6171 28.8205C20.7309 29.7807 22.2568 30.3733 23.9403 30.3733C27.349 30.3733 30.1113 27.9477 30.1113 24.9538C30.1113 24.1457 29.908 23.3794 29.547 22.6898C30.7793 21.6986 31.5538 20.275 31.5538 18.6912V18.6925Z" fill="#CCE5CD"/>
<path d="M22.1651 11.1471C22.1597 11.1296 22.1543 11.1108 22.1476 11.0933L20.3456 6.48046C20.0547 5.73568 19.155 5.73568 18.8654 6.48046L17.0634 11.0933C17.0567 11.1108 17.0513 11.1296 17.0459 11.1471C16.9395 11.3384 16.8789 11.5431 16.8789 11.7586C16.8789 12.7444 18.1005 13.5444 19.6062 13.5444C21.1119 13.5444 22.3335 12.7444 22.3335 11.7586C22.3335 11.5431 22.2728 11.3384 22.1664 11.1471H22.1651Z" fill="#94A8D2"/>
<path d="M15.7987 20.8631C16.9777 20.8631 17.9334 19.9996 17.9334 18.9345C17.9334 17.8693 16.9777 17.0059 15.7987 17.0059C14.6198 17.0059 13.6641 17.8693 13.6641 18.9345C13.6641 19.9996 14.6198 20.8631 15.7987 20.8631Z" fill="white"/>
<path d="M19.9166 19.2741C20.3496 19.2741 20.7005 18.9841 20.7005 18.6263C20.7005 18.2686 20.3496 17.9785 19.9166 17.9785C19.4837 17.9785 19.1328 18.2686 19.1328 18.6263C19.1328 18.9841 19.4837 19.2741 19.9166 19.2741Z" fill="#6DA973"/>
<path d="M15.799 17.0059C15.3936 17.0059 15.0165 17.1082 14.6946 17.286C14.4926 17.3964 14.4199 17.651 14.5357 17.849L16.0939 20.5466C16.1936 20.7176 16.401 20.7931 16.5869 20.7271C17.3761 20.4442 17.935 19.7479 17.935 18.9345C17.935 17.8692 16.9788 17.0059 15.8003 17.0059H15.799Z" fill="#373737"/>
<path d="M23.9745 20.8631C25.1535 20.8631 26.1092 19.9996 26.1092 18.9345C26.1092 17.8693 25.1535 17.0059 23.9745 17.0059C22.7956 17.0059 21.8398 17.8693 21.8398 18.9345C21.8398 19.9996 22.7956 20.8631 23.9745 20.8631Z" fill="white"/>
<path d="M19.0664 20.0645V20.6382C19.0664 21.2038 19.4449 21.6618 19.9122 21.6618C20.3795 21.6618 20.758 21.2038 20.758 20.6382V20.0645" stroke="#373737" stroke-width="0.645615" stroke-linecap="round" stroke-linejoin="round"/>
<path d="M23.9765 17.0072C23.5738 17.0072 23.198 17.1082 22.8775 17.2833C22.6728 17.3951 22.5987 17.6537 22.7159 17.8557L24.2674 20.5426C24.3684 20.7163 24.5799 20.7944 24.7684 20.7257C25.5549 20.4415 26.1112 19.7466 26.1112 18.9345C26.1112 17.8692 25.1549 17.0059 23.9765 17.0059V17.0072Z" fill="#373737"/>
</g>
<defs>
<clipPath id="clip0_967_8635">
<rect width="40" height="40" fill="white"/>
</clipPath>
</defs>
</svg>
