<svg width="258" height="140" viewBox="0 0 258 140" fill="none" xmlns="http://www.w3.org/2000/svg">
<g clip-path="url(#clip0_1199_11308)">
<path d="M128.681 139.997C196.285 139.997 251.089 134.343 251.089 127.368C251.089 120.393 196.285 114.738 128.681 114.738C61.0772 114.738 6.27344 120.393 6.27344 127.368C6.27344 134.343 61.0772 139.997 128.681 139.997Z" fill="#E3E4E5"/>
<path d="M211.897 124.516C218.547 123.262 222.659 115.461 221.081 107.092C219.502 98.7232 212.832 92.9555 206.182 94.2096C199.532 95.4638 195.42 103.265 196.998 111.634C198.577 120.003 205.247 125.771 211.897 124.516Z" fill="#879EC6"/>
<path d="M159.864 65.105C166.639 65.105 172.13 59.6132 172.13 52.8386C172.13 46.0641 166.639 40.5723 159.864 40.5723C153.09 40.5723 147.598 46.0641 147.598 52.8386C147.598 59.6132 153.09 65.105 159.864 65.105Z" fill="#879EC6"/>
<path d="M111.214 124.511C117.864 123.256 121.975 115.455 120.397 107.086C118.819 98.7173 112.148 92.9496 105.498 94.2038C98.848 95.4579 94.7365 103.259 96.3148 111.628C97.8931 119.997 104.564 125.765 111.214 124.511Z" fill="#BCDDBC"/>
<path d="M56.0633 65.105C62.8378 65.105 68.3296 59.6132 68.3296 52.8386C68.3296 46.0641 62.8378 40.5723 56.0633 40.5723C49.2887 40.5723 43.7969 46.0641 43.7969 52.8386C43.7969 59.6132 49.2887 65.105 56.0633 65.105Z" fill="#BCDDBC"/>
<path d="M34.6953 7.05706L52.9912 0H248.748C253.354 0 257.088 3.73437 257.088 8.34075V37.4248C257.088 42.0312 253.354 45.7655 248.748 45.7655H52.9912L34.6953 38.7085V7.05706Z" fill="#6DA973"/>
<path d="M213.835 81.4752C215.708 77.0698 221.277 75.8996 224.782 72.8298C231.553 66.9818 220.308 65.8602 216.049 65.5328C209.77 64.9137 203.312 64.4728 203.876 57.3898C204.2 52.7056 206.11 45.2693 198.492 49.4024C193.86 51.999 189.662 57.2018 183.882 56.8906C177.162 56.7415 170.717 46.9063 165.054 47.1106C161.061 48.0636 165.304 57.218 162.999 60.4564C159.744 66.5961 143.381 62.5732 140.752 68.0937C140.12 72.3338 149.994 75.2772 152.279 78.3017C156.934 83.3813 149.977 88.3702 146.979 92.2829C145.601 93.9653 143.925 97.1842 146.943 98.1081C151.371 99.9007 162.989 94.2765 163.774 101.278C163.926 103.48 162.847 106.141 162.542 108.345C161.599 114.313 167.463 112.154 171.304 109.995C175.457 107.7 179.933 104.877 184.867 105.784C189.179 106.442 193.5 109.674 197.847 111.843C200.006 112.9 204.719 115.01 205.16 111.253C205.568 107.36 200.965 100.293 206.742 98.8375C210.295 97.6348 220.914 101.804 222.263 97.4792C222.538 93.8907 217.455 90.2893 215.527 87.4398C214.272 85.7672 213.115 83.6374 213.809 81.5303L213.828 81.472L213.835 81.4752Z" fill="#94A8D2"/>
<path d="M180.879 54.3496C184.085 62.0193 183.437 61.8605 188.96 55.4842" stroke="#3C7A46" stroke-width="2.50255" stroke-linecap="round" stroke-linejoin="round"/>
<path d="M177.629 61.3221C184.67 60.1259 185.098 59.3998 180.712 65.4714" stroke="#3C7A46" stroke-width="2.50255" stroke-linecap="round" stroke-linejoin="round"/>
<path d="M183.836 60.3301C185.645 60.6899 188.115 61.1794 189.956 61.5457" stroke="#3C7A46" stroke-width="2.50255" stroke-linecap="round" stroke-linejoin="round"/>
<path d="M167.535 73.1289C170.398 74.176 174.297 75.6023 177.192 76.6623Z" fill="#EEF2FA"/>
<path d="M167.535 73.1289C170.398 74.176 174.297 75.6023 177.192 76.6623" stroke="#373737" stroke-width="2.08438" stroke-linecap="round" stroke-linejoin="round"/>
<path d="M200.133 73.1289C197.239 74.1889 193.339 75.6153 190.477 76.6623Z" fill="#EEF2FA"/>
<path d="M200.133 73.1289C197.239 74.1889 193.339 75.6153 190.477 76.6623" stroke="#373737" stroke-width="2.08438" stroke-linecap="round" stroke-linejoin="round"/>
<path d="M186.385 80.146C186.213 83.6762 181.014 83.3844 181.237 79.8575C181.61 76.6548 186.268 76.846 186.385 80.065V80.146Z" fill="#EEF2FA"/>
<path d="M165.182 81.8837C165.101 83.3684 162.819 83.3294 162.793 81.8448C162.822 80.3569 165.101 80.3277 165.182 81.8059V81.8837Z" fill="#6274A6"/>
<path d="M172.135 81.8837C172.054 83.3684 169.772 83.3294 169.746 81.8448C169.775 80.3569 172.054 80.3277 172.135 81.8059V81.8837Z" fill="#6274A6"/>
<path d="M168.659 85.8576C168.578 87.339 166.299 87.3066 166.27 85.8187C166.295 84.334 168.578 84.2951 168.659 85.7798V85.8576Z" fill="#6274A6"/>
<path d="M197.866 81.8849C197.785 83.3664 195.506 83.334 195.477 81.846C195.502 80.3614 197.785 80.3225 197.866 81.8071V81.8849Z" fill="#6274A6"/>
<path d="M204.815 81.8837C204.734 83.3684 202.452 83.3294 202.426 81.8448C202.455 80.3569 204.734 80.3277 204.815 81.8059V81.8837Z" fill="#6274A6"/>
<path d="M201.338 85.8583C201.257 87.343 198.975 87.3041 198.949 85.8194C198.978 84.3315 201.257 84.3023 201.338 85.7805V85.8583Z" fill="#6274A6"/>
<path d="M52.9904 45.7617L49.8006 42.2218C49.1264 41.473 49.1588 40.4356 49.8784 39.7192L51.7651 37.8358C52.4847 37.1194 52.5171 36.0821 51.8429 35.3333L49.8039 33.0706C49.1296 32.3218 49.162 31.2845 49.8817 30.5681L51.7683 28.6847C52.488 27.9683 52.5204 26.931 51.8461 26.1821L49.8071 23.9195C49.1328 23.1706 49.1653 22.1333 49.8849 21.4169L51.7715 19.5335C52.4912 18.8171 52.5236 17.7798 51.8493 17.031L49.8104 14.7683C49.1361 14.0195 49.1685 12.9822 49.8882 12.2658L51.7748 10.3824C52.4944 9.66596 52.5269 8.62863 51.8526 7.87981L49.8136 5.61714C49.1393 4.86833 49.1718 3.831 49.8914 3.1146L53.0066 0.00585938L3.93461 18.9273C-0.0979949 20.4833 -0.0979949 25.281 3.93461 26.8369L52.9936 45.7649L52.9904 45.7617Z" fill="#FAFAFA"/>
<path d="M11.6335 15.9551L3.93461 18.9244C-0.0979949 20.4804 -0.0979949 25.278 3.93461 26.834L11.6335 29.8034V15.9551Z" fill="#6B6B6B"/>
<path d="M63.1289 8.73047H243.98" stroke="#9AC99E" stroke-width="2.41178" stroke-linecap="round" stroke-linejoin="round"/>
<path d="M63.1289 18.1621H243.98" stroke="#9AC99E" stroke-width="2.41178" stroke-linecap="round" stroke-linejoin="round"/>
<path d="M63.1289 27.5996H243.98" stroke="#9AC99E" stroke-width="2.41178" stroke-linecap="round" stroke-linejoin="round"/>
<path d="M63.1289 37.0352H243.98" stroke="#9AC99E" stroke-width="2.41178" stroke-linecap="round" stroke-linejoin="round"/>
<path d="M115.857 76.5806C115.857 67.4553 107.562 60.0352 97.2306 59.8115C94.9063 52.8452 87.5802 47.7559 78.8926 47.7559C70.205 47.7559 62.8075 52.8971 60.5222 59.9185C50.1781 60.1292 41.8633 67.5558 41.8633 76.6908C41.8633 81.5954 44.2621 86.0105 48.084 89.0771C47.0013 91.1809 46.3951 93.5149 46.3951 95.9721C46.3951 105.24 54.9498 112.754 65.5046 112.754C70.7204 112.754 75.4467 110.916 78.8926 107.943C82.3417 110.919 87.0648 112.754 92.2806 112.754C102.835 112.754 111.39 105.24 111.39 95.9721C111.39 93.4695 110.761 91.0966 109.643 88.9604C113.461 85.8938 115.857 81.4819 115.857 76.5806Z" fill="#CCE5CD"/>
<path d="M86.7863 53.215C86.7701 53.1599 86.7539 53.1016 86.7312 53.0464L81.1491 38.7638C80.2479 36.459 77.4633 36.459 76.5621 38.7638L70.98 53.0464C70.9573 53.1016 70.9411 53.1567 70.9249 53.215C70.5943 53.805 70.4062 54.4404 70.4062 55.1081C70.4062 58.1618 74.1892 60.6384 78.854 60.6384C83.5187 60.6384 87.3017 58.1618 87.3017 55.1081C87.3017 54.4436 87.1137 53.8082 86.783 53.215H86.7863Z" fill="#94A8D2"/>
<path d="M67.0661 83.3003C70.7183 83.3003 73.679 80.6255 73.679 77.3259C73.679 74.0264 70.7183 71.3516 67.0661 71.3516C63.4138 71.3516 60.4531 74.0264 60.4531 77.3259C60.4531 80.6255 63.4138 83.3003 67.0661 83.3003Z" fill="white"/>
<path d="M79.8069 78.3764C81.1478 78.3764 82.2349 77.4781 82.2349 76.3699C82.2349 75.2617 81.1478 74.3633 79.8069 74.3633C78.466 74.3633 77.3789 75.2617 77.3789 76.3699C77.3789 77.4781 78.466 78.3764 79.8069 78.3764Z" fill="#6DA973"/>
<path d="M67.0663 71.3548C65.8118 71.3548 64.6415 71.6725 63.6463 72.2203C63.0239 72.5639 62.797 73.3484 63.1536 73.9643L67.9772 82.318C68.2851 82.8497 68.927 83.0831 69.504 82.8756C71.9482 82.0004 73.6792 79.8447 73.6792 77.3259C73.6792 74.0259 70.7196 71.3516 67.0663 71.3516V71.3548Z" fill="#373737"/>
<path d="M92.3825 83.3003C96.0347 83.3003 98.9954 80.6255 98.9954 77.3259C98.9954 74.0264 96.0347 71.3516 92.3825 71.3516C88.7302 71.3516 85.7695 74.0264 85.7695 77.3259C85.7695 80.6255 88.7302 83.3003 92.3825 83.3003Z" fill="white"/>
<path d="M77.1875 80.8281V82.6045C77.1875 84.355 78.361 85.7716 79.8067 85.7716C81.2525 85.7716 82.426 84.3518 82.426 82.6045V80.8281" stroke="#373737" stroke-width="2.08438" stroke-linecap="round" stroke-linejoin="round"/>
<path d="M92.3819 71.3548C91.1371 71.3548 89.9734 71.6692 88.9782 72.2106C88.3428 72.5575 88.1159 73.3581 88.4757 73.9838L93.2798 82.3051C93.591 82.8464 94.2458 83.0831 94.8326 82.8724C97.2703 81.9939 98.9916 79.8414 98.9916 77.3259C98.9916 74.0259 96.032 71.3516 92.3787 71.3516L92.3819 71.3548Z" fill="#373737"/>
<path d="M91.7755 50.1387C90.1547 56.7484 93.5098 63.7439 99.9769 66.4895C105.455 68.817 111.582 67.4134 115.53 63.4294L91.7755 50.1419V50.1387Z" fill="#F0F0F0"/>
<path d="M105.493 65.7535C112.267 65.7535 117.759 60.2616 117.759 53.4871C117.759 46.7125 112.267 41.2207 105.493 41.2207C98.7184 41.2207 93.2266 46.7125 93.2266 53.4871C93.2266 60.2616 98.7184 65.7535 105.493 65.7535Z" fill="#BCDDBC"/>
<path d="M200.299 46.5332C200.108 46.8703 199.926 47.2172 199.764 47.577C196.5 54.6859 199.618 63.0948 206.727 66.3591C213.146 69.3058 220.621 67.0496 224.417 61.354L200.302 46.5332H200.299Z" fill="#F0F0F0"/>
<path d="M212.634 65.7535C219.408 65.7535 224.9 60.2616 224.9 53.4871C224.9 46.7125 219.408 41.2207 212.634 41.2207C205.859 41.2207 200.367 46.7125 200.367 53.4871C200.367 60.2616 205.859 65.7535 212.634 65.7535Z" fill="#94A8D2"/>
<path d="M62.273 117.515C66.6203 112.328 64.8533 103.689 58.3265 98.2181C51.7996 92.7472 42.9843 92.5166 38.6371 97.703C34.2898 102.889 36.0567 111.529 42.5836 117C49.1105 122.471 57.9257 122.701 62.273 117.515Z" fill="#BCDDBC"/>
<path d="M171.914 117.519C176.261 112.332 174.494 103.693 167.967 98.222C161.44 92.7511 152.625 92.5205 148.278 97.7069C143.93 102.893 145.697 111.533 152.224 117.004C158.751 122.474 167.566 122.705 171.914 117.519Z" fill="#879EC6"/>
</g>
<defs>
<clipPath id="clip0_1199_11308">
<rect width="256.177" height="140" fill="white" transform="translate(0.910156)"/>
</clipPath>
</defs>
</svg>
