<svg width="298" height="217" viewBox="0 0 298 217" fill="none" xmlns="http://www.w3.org/2000/svg">
<g clip-path="url(#clip0_2360_23388)">
<path d="M148.63 189.496C226.857 189.496 290.273 182.954 290.273 174.882C290.273 166.811 226.857 160.268 148.63 160.268C70.4021 160.268 6.98633 166.811 6.98633 174.882C6.98633 182.954 70.4021 189.496 148.63 189.496Z" fill="#E3E4E5"/>
<path d="M244.926 171.582C252.621 170.131 257.379 161.104 255.552 151.42C253.726 141.736 246.007 135.062 238.312 136.513C230.617 137.964 225.859 146.991 227.686 156.675C229.512 166.359 237.231 173.033 244.926 171.582Z" fill="#879EC6"/>
<path d="M184.715 102.836C192.555 102.836 198.909 96.4811 198.909 88.6419C198.909 80.8028 192.555 74.448 184.715 74.448C176.876 74.448 170.521 80.8028 170.521 88.6419C170.521 96.4811 176.876 102.836 184.715 102.836Z" fill="#879EC6"/>
<path d="M128.418 171.575C136.113 170.124 140.871 161.097 139.045 151.413C137.218 141.729 129.5 135.055 121.804 136.506C114.109 137.957 109.352 146.984 111.178 156.668C113.004 166.353 120.723 173.027 128.418 171.575Z" fill="#BCDDBC"/>
<path d="M64.6041 102.836C72.4432 102.836 78.7981 96.4811 78.7981 88.6419C78.7981 80.8028 72.4432 74.448 64.6041 74.448C56.765 74.448 50.4102 80.8028 50.4102 88.6419C50.4102 96.4811 56.765 102.836 64.6041 102.836Z" fill="#BCDDBC"/>
<path d="M39.877 35.666L61.0479 27.5H287.566C292.896 27.5 297.217 31.8212 297.217 37.1514V70.8058C297.217 76.136 292.896 80.4572 287.566 80.4572H61.0479L39.877 72.2912V35.666Z" fill="#6DA973"/>
<path d="M247.167 121.779C249.335 116.681 255.78 115.327 259.835 111.775C267.671 105.008 254.658 103.71 249.729 103.331C242.463 102.615 234.991 102.104 235.644 93.9084C236.019 88.4882 238.229 79.8833 229.414 84.6659C224.053 87.6705 219.196 93.6909 212.508 93.3308C204.732 93.1582 197.275 81.7776 190.722 82.0139C186.1 83.1167 191.01 93.7096 188.343 97.4569C184.577 104.561 165.642 99.9064 162.6 106.294C161.869 111.201 173.294 114.607 175.939 118.106C181.325 123.984 173.275 129.757 169.806 134.285C168.212 136.231 166.272 139.956 169.764 141.025C174.888 143.1 188.332 136.592 189.24 144.694C189.416 147.241 188.167 150.32 187.815 152.871C186.723 159.777 193.509 157.279 197.954 154.78C202.759 152.125 207.939 148.857 213.648 149.908C218.637 150.669 223.637 154.409 228.667 156.918C231.165 158.141 236.619 160.583 237.13 156.236C237.602 151.731 232.276 143.554 238.96 141.869C243.071 140.478 255.36 145.302 256.92 140.298C257.239 136.145 251.357 131.978 249.125 128.681C247.674 126.745 246.335 124.281 247.137 121.842L247.16 121.775L247.167 121.779Z" fill="#94A8D2"/>
<path d="M209.033 90.3899C212.743 99.2649 211.993 99.0811 218.385 91.7028" stroke="#3C7A46" stroke-width="2.89581" stroke-linecap="round" stroke-linejoin="round"/>
<path d="M205.271 98.4586C213.419 97.0744 213.914 96.2342 208.839 103.26" stroke="#3C7A46" stroke-width="2.89581" stroke-linecap="round" stroke-linejoin="round"/>
<path d="M212.455 97.3108C214.548 97.7272 217.406 98.2936 219.537 98.7174" stroke="#3C7A46" stroke-width="2.89581" stroke-linecap="round" stroke-linejoin="round"/>
<path d="M193.594 112.12C196.906 113.331 201.418 114.982 204.768 116.209L193.594 112.12Z" fill="#EEF2FA"/>
<path d="M193.594 112.12C196.906 113.331 201.418 114.982 204.768 116.209" stroke="#373737" stroke-width="2.41192" stroke-linecap="round" stroke-linejoin="round"/>
<path d="M231.311 112.12C227.961 113.346 223.449 114.997 220.137 116.209L231.311 112.12Z" fill="#EEF2FA"/>
<path d="M231.311 112.12C227.961 113.346 223.449 114.997 220.137 116.209" stroke="#373737" stroke-width="2.41192" stroke-linecap="round" stroke-linejoin="round"/>
<path d="M215.402 120.241C215.203 124.326 209.187 123.988 209.446 119.907C209.877 116.201 215.267 116.422 215.402 120.147V120.241Z" fill="#EEF2FA"/>
<path d="M190.872 122.251C190.778 123.969 188.137 123.924 188.107 122.206C188.141 120.485 190.778 120.451 190.872 122.161V122.251Z" fill="#6274A6"/>
<path d="M198.913 122.251C198.819 123.969 196.178 123.924 196.148 122.206C196.182 120.485 198.819 120.451 198.913 122.161V122.251Z" fill="#6274A6"/>
<path d="M194.891 126.85C194.798 128.564 192.161 128.527 192.127 126.805C192.157 125.087 194.798 125.042 194.891 126.76V126.85Z" fill="#6274A6"/>
<path d="M228.69 122.251C228.597 123.966 225.96 123.928 225.926 122.206C225.956 120.488 228.597 120.443 228.69 122.161V122.251Z" fill="#6274A6"/>
<path d="M236.727 122.251C236.634 123.969 233.993 123.924 233.963 122.206C233.997 120.485 236.634 120.451 236.727 122.161V122.251Z" fill="#6274A6"/>
<path d="M232.706 126.85C232.612 128.568 229.971 128.523 229.941 126.805C229.975 125.083 232.612 125.05 232.706 126.76V126.85Z" fill="#6274A6"/>
<path d="M61.0475 80.4536L57.3565 76.3574C56.5762 75.4909 56.6138 74.2906 57.4465 73.4616L59.6296 71.2823C60.4623 70.4533 60.4998 69.2529 59.7196 68.3865L57.3602 65.7682C56.58 64.9017 56.6175 63.7014 57.4502 62.8724L59.6333 60.6931C60.4661 59.8641 60.5036 58.6637 59.7234 57.7973L57.364 55.179C56.5837 54.3125 56.6213 53.1122 57.454 52.2832L59.6371 50.1039C60.4698 49.2749 60.5073 48.0745 59.7271 47.2081L57.3677 44.5898C56.5875 43.7233 56.625 42.523 57.4577 41.694L59.6409 39.5147C60.4736 38.6857 60.5111 37.4853 59.7309 36.6189L57.3715 34.0006C56.5912 33.1341 56.6288 31.9338 57.4615 31.1048L61.0662 27.5076L4.28293 49.4024C-0.383372 51.2029 -0.383372 56.7545 4.28293 58.555L61.0512 80.4573L61.0475 80.4536Z" fill="#FAFAFA"/>
<path d="M13.1917 45.9626L4.28293 49.3986C-0.383372 51.1991 -0.383372 56.7507 4.28293 58.5512L13.1917 61.9871V45.9626Z" fill="#6B6B6B"/>
<path d="M72.7773 37.6016H282.048" stroke="#9AC99E" stroke-width="2.79078" stroke-linecap="round" stroke-linejoin="round"/>
<path d="M72.7773 48.5171H282.048" stroke="#9AC99E" stroke-width="2.79078" stroke-linecap="round" stroke-linejoin="round"/>
<path d="M72.7773 59.4363H282.048" stroke="#9AC99E" stroke-width="2.79078" stroke-linecap="round" stroke-linejoin="round"/>
<path d="M72.7773 70.3557H282.048" stroke="#9AC99E" stroke-width="2.79078" stroke-linecap="round" stroke-linejoin="round"/>
<path d="M133.791 116.115C133.791 105.556 124.192 96.9694 112.238 96.7106C109.548 88.6496 101.071 82.7605 91.0181 82.7605C80.9653 82.7605 72.4054 88.7097 69.7609 96.8344C57.7914 97.0782 48.1699 105.672 48.1699 116.242C48.1699 121.918 50.9457 127.027 55.3682 130.575C54.1153 133.009 53.4139 135.71 53.4139 138.554C53.4139 149.278 63.3129 157.973 75.5263 157.973C81.5617 157.973 87.0307 155.846 91.0181 152.406C95.0092 155.85 100.474 157.973 106.51 157.973C118.723 157.973 128.622 149.278 128.622 138.554C128.622 135.658 127.895 132.912 126.601 130.44C131.019 126.892 133.791 121.786 133.791 116.115Z" fill="#CCE5CD"/>
<path d="M100.153 89.0771C100.134 89.0134 100.116 88.9459 100.089 88.8821L93.6302 72.355C92.5874 69.688 89.3652 69.688 88.3224 72.355L81.8631 88.8821C81.8369 88.9459 81.8181 89.0096 81.7994 89.0771C81.4168 89.7598 81.1992 90.495 81.1992 91.2677C81.1992 94.8012 85.5767 97.667 90.9744 97.667C96.3722 97.667 100.75 94.8012 100.75 91.2677C100.75 90.4988 100.532 89.7636 100.149 89.0771H100.153Z" fill="#94A8D2"/>
<path d="M77.3338 123.891C81.5599 123.891 84.9859 120.795 84.9859 116.977C84.9859 113.159 81.5599 110.064 77.3338 110.064C73.1076 110.064 69.6816 113.159 69.6816 116.977C69.6816 120.795 73.1076 123.891 77.3338 123.891Z" fill="white"/>
<path d="M92.0771 118.193C93.6288 118.193 94.8866 117.153 94.8866 115.871C94.8866 114.588 93.6288 113.549 92.0771 113.549C90.5255 113.549 89.2676 114.588 89.2676 115.871C89.2676 117.153 90.5255 118.193 92.0771 118.193Z" fill="#6DA973"/>
<path d="M77.3347 110.068C75.883 110.068 74.5289 110.436 73.3773 111.069C72.6571 111.467 72.3945 112.375 72.8072 113.088L78.3887 122.754C78.7451 123.369 79.4878 123.639 80.1555 123.399C82.9837 122.386 84.9868 119.892 84.9868 116.977C84.9868 113.159 81.5621 110.064 77.3347 110.064V110.068Z" fill="#373737"/>
<path d="M106.631 123.891C110.857 123.891 114.283 120.795 114.283 116.977C114.283 113.159 110.857 110.064 106.631 110.064C102.404 110.064 98.9785 113.159 98.9785 116.977C98.9785 120.795 102.404 123.891 106.631 123.891Z" fill="white"/>
<path d="M89.0449 121.029V123.084C89.0449 125.11 90.4028 126.749 92.0758 126.749C93.7487 126.749 95.1066 125.106 95.1066 123.084V121.029" stroke="#373737" stroke-width="2.41192" stroke-linecap="round" stroke-linejoin="round"/>
<path d="M106.63 110.068C105.19 110.068 103.843 110.432 102.691 111.058C101.956 111.46 101.694 112.386 102.11 113.11L107.669 122.739C108.029 123.365 108.787 123.639 109.466 123.395C112.287 122.379 114.278 119.888 114.278 116.977C114.278 113.159 110.854 110.064 106.626 110.064L106.63 110.068Z" fill="#373737"/>
<path d="M105.925 85.5173C104.049 93.1657 107.932 101.26 115.415 104.438C121.754 107.131 128.844 105.507 133.413 100.897L105.925 85.5211V85.5173Z" fill="#F0F0F0"/>
<path d="M121.799 103.586C129.639 103.586 135.993 97.2313 135.993 89.3922C135.993 81.5531 129.639 75.1982 121.799 75.1982C113.96 75.1982 107.605 81.5531 107.605 89.3922C107.605 97.2313 113.96 103.586 121.799 103.586Z" fill="#BCDDBC"/>
<path d="M231.503 81.3462C231.281 81.7363 231.071 82.1377 230.884 82.554C227.106 90.7801 230.715 100.51 238.941 104.288C246.368 107.697 255.018 105.087 259.41 98.496L231.506 81.3462H231.503Z" fill="#F0F0F0"/>
<path d="M245.78 103.586C253.619 103.586 259.974 97.2313 259.974 89.3922C259.974 81.5531 253.619 75.1982 245.78 75.1982C237.941 75.1982 231.586 81.5531 231.586 89.3922C231.586 97.2313 237.941 103.586 245.78 103.586Z" fill="#94A8D2"/>
<path d="M71.7867 163.482C76.8171 157.481 74.7725 147.484 67.2199 141.153C59.6674 134.823 49.4669 134.556 44.4365 140.557C39.4061 146.558 41.4507 156.556 49.0032 162.886C56.5558 169.217 66.7563 169.484 71.7867 163.482Z" fill="#BCDDBC"/>
<path d="M198.66 163.487C203.69 157.485 201.646 147.488 194.093 141.158C186.54 134.827 176.34 134.56 171.31 140.562C166.279 146.563 168.324 156.56 175.876 162.891C183.429 169.221 193.629 169.488 198.66 163.487Z" fill="#879EC6"/>
</g>
<defs>
<clipPath id="clip0_2360_23388">
<rect width="296.434" height="162" fill="white" transform="translate(0.783203 27.5)"/>
</clipPath>
</defs>
</svg>
