<svg width="1030" height="462" viewBox="0 0 1030 462" fill="none" xmlns="http://www.w3.org/2000/svg">
<rect width="1030" height="462" rx="24" fill="#FAFAFA"/>
<g clip-path="url(#clip0_1118_10328)">
<path d="M982.001 40H578.047V422H982.001V40Z" fill="#FAFAFA"/>
<path d="M700.184 86.7091L700.35 71.4922" stroke="#EFDF92" stroke-width="4.54563" stroke-linecap="round" stroke-linejoin="round"/>
<path d="M732.566 97.6252L741.647 85.4121" stroke="#EFDF92" stroke-width="4.54563" stroke-linecap="round" stroke-linejoin="round"/>
<path d="M752.352 125.489L766.877 120.947" stroke="#EFDF92" stroke-width="4.54563" stroke-linecap="round" stroke-linejoin="round"/>
<path d="M751.98 159.658L766.399 164.52" stroke="#EFDF92" stroke-width="4.54563" stroke-linecap="round" stroke-linejoin="round"/>
<path d="M731.59 187.086L740.4 199.494" stroke="#EFDF92" stroke-width="4.54563" stroke-linecap="round" stroke-linejoin="round"/>
<path d="M698.975 197.291L698.809 212.508" stroke="#EFDF92" stroke-width="4.54563" stroke-linecap="round" stroke-linejoin="round"/>
<path d="M666.593 186.373L657.512 198.59" stroke="#EFDF92" stroke-width="4.54563" stroke-linecap="round" stroke-linejoin="round"/>
<path d="M646.811 158.51L632.285 163.055" stroke="#EFDF92" stroke-width="4.54563" stroke-linecap="round" stroke-linejoin="round"/>
<path d="M647.183 124.339L632.762 119.48" stroke="#EFDF92" stroke-width="4.54563" stroke-linecap="round" stroke-linejoin="round"/>
<path d="M667.572 96.915L658.762 84.5039" stroke="#EFDF92" stroke-width="4.54563" stroke-linecap="round" stroke-linejoin="round"/>
<path d="M783.556 224.499L665.511 208.011C657.889 206.945 652.767 200.514 654.569 194.274L676.881 117.029C678.843 110.24 686.552 106.003 694.844 107.163L782.976 119.474C791.265 120.63 797.522 126.818 797.547 133.885L797.842 214.286C797.866 220.783 791.174 225.565 783.556 224.499Z" fill="#9AC99E"/>
<path d="M723.793 174.453L729.092 180.461L736.284 176.196" stroke="#373737" stroke-width="3.36495" stroke-linecap="round" stroke-linejoin="round"/>
<path d="M797.576 147.685L797.503 133.996C797.465 126.818 792.162 120.755 785.053 119.762L692.036 106.771C684.789 105.76 677.931 110.323 676.066 117.397L672.652 130.238L797.576 147.685Z" fill="#E0E9F6"/>
<path d="M672.652 130.238L680.591 140.281C682.067 142.146 684.734 142.552 686.696 141.212L697.638 133.728L672.652 130.238Z" fill="#E0E9F6"/>
<path d="M772.594 144.195L780.532 154.238C782.008 156.103 784.675 156.509 786.637 155.169L797.579 147.685L772.594 144.195Z" fill="#E0E9F6"/>
<path d="M747.605 140.705L755.544 150.748C757.02 152.613 759.687 153.019 761.649 151.678L772.591 144.195L747.605 140.705Z" fill="#E0E9F6"/>
<path d="M722.625 137.219L730.563 147.262C732.039 149.126 734.706 149.533 736.668 148.192L747.61 140.709L722.625 137.219Z" fill="#E0E9F6"/>
<path d="M697.641 133.729L705.579 143.771C707.055 145.636 709.722 146.042 711.684 144.702L722.626 137.218L697.641 133.729Z" fill="#E0E9F6"/>
<path d="M703.5 161.283C707.174 166.148 714.095 167.117 718.96 163.443" stroke="#6274A6" stroke-width="4.20532" stroke-linecap="round" stroke-linejoin="round"/>
<path d="M743.945 166.93C747.619 171.795 754.54 172.764 759.405 169.09" stroke="#6274A6" stroke-width="4.20532" stroke-linecap="round" stroke-linejoin="round"/>
<path d="M917.238 136.244C913.946 118.134 894.801 106.404 874.216 109.682C867.086 96.6945 850.71 89.2423 833.472 92.3746C816.147 95.5243 803.402 108.383 801.402 123.142C780.949 127.295 767.128 145.03 770.423 163.16C772.194 172.897 778.546 180.79 787.238 185.499C785.848 190.066 785.487 194.914 786.373 199.796C789.717 218.19 809.41 230.011 830.357 226.202C840.709 224.32 849.421 218.968 855.193 211.822C863.11 216.478 873.15 218.42 883.501 216.537C904.448 212.728 918.717 194.73 915.373 176.335C914.47 171.366 912.366 166.883 909.372 163.052C915.842 155.586 919.002 145.967 917.234 136.237L917.238 136.244Z" fill="#CCE5CD"/>
<path d="M851.114 100.362C851.062 100.257 851.006 100.15 850.944 100.049L834.713 73.7163C832.094 69.4659 826.566 70.4729 825.611 75.3728L819.69 105.734C819.666 105.852 819.652 105.97 819.642 106.088C819.201 107.38 819.055 108.71 819.294 110.033C820.395 116.096 828.795 119.645 838.053 117.961C847.311 116.277 853.923 109.998 852.822 103.935C852.583 102.612 851.978 101.421 851.11 100.365L851.114 100.362Z" fill="#94A8D2"/>
<path d="M846.347 152.804C849.009 152.32 850.844 150.145 850.444 147.947C850.044 145.749 847.561 144.359 844.899 144.844C842.236 145.328 840.402 147.503 840.802 149.701C841.202 151.899 843.685 153.289 846.347 152.804Z" fill="#6DA973"/>
<path d="M852.425 156.738L853.067 160.263C853.699 163.736 851.883 166.976 849.015 167.496C846.146 168.017 843.306 165.625 842.674 162.152L842.031 158.627L852.425 156.738Z" fill="#EEF2FA" stroke="#373737" stroke-width="4.20532" stroke-linecap="round" stroke-linejoin="round"/>
<path d="M814.426 149.199L829.514 153.825L816.989 163.277" stroke="#373737" stroke-width="4.20532" stroke-linecap="round" stroke-linejoin="round"/>
<path d="M875.116 138.066L862.621 147.706L877.675 152.144" stroke="#373737" stroke-width="4.20532" stroke-linecap="round" stroke-linejoin="round"/>
<path d="M824.741 166.718C831.988 165.4 836.898 159.023 835.707 152.476C834.516 145.928 827.675 141.689 820.428 143.007C813.18 144.326 808.27 150.702 809.461 157.25C810.652 163.797 817.493 168.036 824.741 166.718Z" fill="white"/>
<path d="M820.429 143.022C817.939 143.474 815.734 144.526 813.953 145.978C812.838 146.884 812.675 148.523 813.605 149.617L826.193 164.459C826.992 165.403 828.357 165.632 829.426 165.014C833.962 162.393 836.618 157.493 835.708 152.492C834.517 145.946 827.676 141.706 820.429 143.026V143.022Z" fill="#373737"/>
<path d="M913.198 253.493C914.67 221.743 891.272 193.865 859.23 190.257C827.188 186.649 798.175 208.627 792.552 239.911C792.306 240.818 792.125 241.752 792.018 242.714L785.833 297.661C784.687 307.835 792.007 317.014 802.182 318.159C812.357 319.305 821.535 311.985 822.681 301.81L823.275 296.546C821.802 309.631 831.213 321.431 844.298 322.903C857.382 324.375 869.182 314.965 870.655 301.88L870.061 307.144C868.915 317.319 876.235 326.497 886.41 327.643C896.585 328.789 905.763 321.469 906.909 311.294L913.093 256.347C913.201 255.385 913.232 254.434 913.194 253.496L913.198 253.493Z" fill="#D2DEF4"/>
<path d="M843.828 251.863L859.715 253.652" stroke="#373737" stroke-width="5.04916" stroke-linecap="round" stroke-linejoin="round"/>
<path d="M825.773 232.834L835.441 233.921" stroke="#373737" stroke-width="5.04916" stroke-linecap="round" stroke-linejoin="round"/>
<path d="M871.883 238.021L881.551 239.112" stroke="#373737" stroke-width="5.04916" stroke-linecap="round" stroke-linejoin="round"/>
<path d="M852.129 181.48L852.372 197.461" stroke="#373737" stroke-width="5.04916" stroke-linecap="round" stroke-linejoin="round"/>
<path d="M868.109 183.23L865.32 198.968" stroke="#373737" stroke-width="5.04916" stroke-linecap="round" stroke-linejoin="round"/>
<path d="M853.664 243.546C857.846 243.546 861.237 240.155 861.237 235.972C861.237 231.789 857.846 228.398 853.664 228.398C849.481 228.398 846.09 231.789 846.09 235.972C846.09 240.155 849.481 243.546 853.664 243.546Z" fill="#9AC99E"/>
<path d="M782.423 264.306C785.565 255.18 796.612 252.038 803.227 245.36C816.024 232.633 793.24 231.969 784.621 231.914C771.901 231.56 758.844 231.584 758.972 217.253C758.958 207.779 761.747 192.548 747.006 201.942C738.053 207.824 730.341 218.888 718.666 219.079C705.126 219.729 690.763 200.855 679.398 202.067C671.494 204.55 681.328 222.371 677.151 229.216C671.473 242.03 637.969 236.255 633.465 247.732C632.795 256.354 653.075 260.879 658.107 266.64C668.195 276.203 654.898 287.225 649.426 295.522C646.891 299.105 643.977 305.814 650.179 307.245C659.343 310.225 681.922 297.265 684.495 311.242C685.117 315.649 683.318 321.156 683.019 325.636C681.964 337.78 693.465 332.605 700.886 327.716C708.915 322.507 717.527 316.197 727.583 317.319C736.348 318.031 745.502 323.924 754.562 327.667C759.056 329.491 768.841 333.071 769.196 325.445C769.463 317.552 759.205 303.988 770.619 300.241C777.599 297.317 799.556 304.203 801.661 295.313C801.709 288.052 790.969 281.527 786.684 276.068C783.919 272.88 781.291 268.758 782.391 264.421L782.423 264.299V264.306Z" fill="#94A8D2"/>
<path d="M713.801 214.943C721.34 229.921 720.013 229.698 730.223 216.082" stroke="#3C7A46" stroke-width="5.04916" stroke-linecap="round" stroke-linejoin="round"/>
<path d="M708.25 229.43C722.252 226.027 723.009 224.506 715.039 237.344" stroke="#3C7A46" stroke-width="5.04916" stroke-linecap="round" stroke-linejoin="round"/>
<path d="M720.598 226.555C724.286 227.023 729.324 227.659 733.089 228.138" stroke="#3C7A46" stroke-width="5.04916" stroke-linecap="round" stroke-linejoin="round"/>
<path d="M689.613 254.617C695.52 256.319 703.566 258.638 709.546 260.357Z" fill="#EEF2FA"/>
<path d="M689.613 254.617C695.52 256.319 703.566 258.638 709.546 260.357" stroke="#373737" stroke-width="4.20532" stroke-linecap="round" stroke-linejoin="round"/>
<path d="M755.203 250.002C749.525 252.544 741.882 255.968 736.273 258.479Z" fill="#EEF2FA"/>
<path d="M755.203 250.002C749.525 252.544 741.882 255.968 736.273 258.479" stroke="#373737" stroke-width="4.20532" stroke-linecap="round" stroke-linejoin="round"/>
<path d="M728.53 266.07C728.683 273.196 718.178 273.349 718.133 266.22C718.428 259.722 727.828 259.452 728.516 265.904L728.526 266.07H728.53Z" fill="#EEF2FA"/>
<path d="M686.118 272.566C686.163 275.563 681.569 275.813 681.308 272.827C681.156 269.826 685.736 269.444 686.108 272.41L686.118 272.566Z" fill="#6274A6"/>
<path d="M700.098 271.58C700.144 274.577 695.549 274.827 695.289 271.84C695.136 268.84 699.716 268.458 700.088 271.424L700.098 271.58Z" fill="#6274A6"/>
<path d="M693.669 280.07C693.718 283.06 689.127 283.321 688.859 280.331C688.703 277.338 693.287 276.942 693.659 279.914L693.669 280.07Z" fill="#6274A6"/>
<path d="M751.88 267.938C751.928 270.928 747.338 271.188 747.07 268.198C746.914 265.205 751.498 264.809 751.869 267.781L751.88 267.938Z" fill="#6274A6"/>
<path d="M765.86 266.955C765.905 269.952 761.311 270.202 761.051 267.215C760.898 264.215 765.478 263.833 765.85 266.799L765.86 266.955Z" fill="#6274A6"/>
<path d="M759.43 275.443C759.476 278.44 754.881 278.69 754.621 275.704C754.468 272.703 759.048 272.321 759.42 275.287L759.43 275.443Z" fill="#6274A6"/>
<path d="M706.095 242.712C705.734 245.067 706.463 247.484 707.932 249.338C710.797 252.963 716.346 253.592 720.632 252.838C722.597 252.494 724.761 251.609 725.997 249.949C727.389 248.074 727.042 245.275 725.768 243.424C725.549 243.108 725.299 242.813 725.007 242.563C723.233 241.049 720.382 240.896 718.538 242.354C716.652 243.844 715.819 246.539 716.412 248.855C717.031 251.269 719.142 253.227 721.284 254.345C721.795 254.609 722.326 254.835 722.875 255.002C725.459 255.776 728.393 255.036 730.654 253.682C734.581 251.328 737.29 247.379 737.866 242.816L737.887 242.636" stroke="#373737" stroke-width="4.20532" stroke-linecap="round" stroke-linejoin="round"/>
<path d="M618.611 200.497C618.611 200.497 618.594 200.49 618.587 200.486C614.08 198.649 608.937 200.813 607.1 205.32C605.263 209.827 607.426 214.97 611.933 216.807C611.94 216.807 611.947 216.811 611.954 216.814C610.506 221.179 612.673 225.978 616.993 227.739C621.5 229.576 626.643 227.413 628.48 222.905C628.713 222.336 628.873 221.759 628.98 221.176L645.336 222.669C646.975 222.818 647.819 220.752 646.541 219.714L633.8 209.345C634.13 208.855 634.419 208.327 634.651 207.758C636.488 203.25 634.325 198.107 629.817 196.27C625.31 194.433 620.646 196.406 618.608 200.493L618.611 200.497Z" fill="#A0A0A0"/>
<path d="M932.999 85.4316L907.625 104.326" stroke="#6B6B6B" stroke-width="2.98991" stroke-linecap="round" stroke-linejoin="round"/>
<path d="M922.128 72.1699L902.445 95.4016" stroke="#6B6B6B" stroke-width="2.98991" stroke-linecap="round" stroke-linejoin="round"/>
<path d="M929.129 97.6838L914.461 74.209" stroke="#6B6B6B" stroke-width="2.98991" stroke-linecap="round" stroke-linejoin="round"/>
<path d="M920.2 102.535L906.504 81.6543" stroke="#6B6B6B" stroke-width="2.98991" stroke-linecap="round" stroke-linejoin="round"/>
<path d="M777.289 375.839C777.289 362.9 778.265 349.687 774.987 337.016C771.396 323.129 761.801 314.673 748.237 310.784C734.833 306.943 720.703 306.429 706.767 306.866C668.572 308.061 631.533 317.114 595.328 328.838" fill="#F0F0F0"/>
<path d="M777.289 375.839C777.289 362.9 778.265 349.687 774.987 337.016C771.396 323.129 761.801 314.673 748.237 310.784C734.833 306.943 720.703 306.429 706.767 306.866C668.572 308.061 631.533 317.114 595.328 328.838" stroke="#6B6B6B" stroke-width="2.98991" stroke-linecap="round" stroke-linejoin="round"/>
<path d="M782.761 375.839C782.761 362.9 781.785 349.687 785.063 337.016C788.654 323.129 798.249 314.673 811.813 310.784C825.217 306.943 839.347 306.429 853.282 306.866C891.478 308.061 928.516 317.114 964.722 328.838" fill="#F0F0F0"/>
<path d="M782.761 375.839C782.761 362.9 781.785 349.687 785.063 337.016C788.654 323.129 798.249 314.673 811.813 310.784C825.217 306.943 839.347 306.429 853.282 306.866C891.478 308.061 928.516 317.114 964.722 328.838" stroke="#6B6B6B" stroke-width="2.98991" stroke-linecap="round" stroke-linejoin="round"/>
<path d="M771.483 376.665C771.483 362.764 774.272 346.005 763.899 335.101C754.773 325.506 741.265 323.208 728.906 322.85C684.158 321.562 639.469 330.194 596.652 342.592C595.617 342.89 594.582 343.192 593.551 343.498" fill="#F0F0F0"/>
<path d="M771.483 376.665C771.483 362.764 774.272 346.005 763.899 335.101C754.773 325.506 741.265 323.208 728.906 322.85C684.158 321.562 639.469 330.194 596.652 342.592C595.617 342.89 594.582 343.192 593.551 343.498" stroke="#6B6B6B" stroke-width="2.98991" stroke-linecap="round" stroke-linejoin="round"/>
<path d="M788.564 376.665C788.564 362.764 785.775 346.005 796.148 335.101C805.274 325.506 818.782 323.208 831.141 322.85C875.889 321.562 920.578 330.194 963.395 342.592C964.43 342.89 965.465 343.192 966.496 343.498" fill="#F0F0F0"/>
<path d="M788.564 376.665C788.564 362.764 785.775 346.005 796.148 335.101C805.274 325.506 818.782 323.208 831.141 322.85C875.889 321.562 920.578 330.194 963.395 342.592C964.43 342.89 965.465 343.192 966.496 343.498" stroke="#6B6B6B" stroke-width="2.98991" stroke-linecap="round" stroke-linejoin="round"/>
<path d="M766.276 378.157C766.276 366.826 769.037 355.183 761.599 345.532C756.421 338.813 747.747 337.195 739.537 336.452C729.106 335.507 718.33 335.983 707.926 336.754C680.722 338.768 653.983 343.501 627.386 349.425C625.025 349.95 622.667 350.484 620.309 351.023C618.118 351.523 615.93 352.03 613.742 352.544C606.169 354.325 598.598 356.197 591.129 358.395" fill="#F0F0F0"/>
<path d="M766.276 378.157C766.276 366.826 769.037 355.183 761.599 345.532C756.421 338.813 747.747 337.195 739.537 336.452C729.106 335.507 718.33 335.983 707.926 336.754C680.722 338.768 653.983 343.501 627.386 349.425C625.025 349.95 622.667 350.484 620.309 351.023C618.118 351.523 615.93 352.03 613.742 352.544C606.169 354.325 598.598 356.197 591.129 358.395" stroke="#6B6B6B" stroke-width="2.98991" stroke-linecap="round" stroke-linejoin="round"/>
<path d="M793.771 378.157C793.771 366.826 791.01 355.183 798.448 345.532C803.626 338.813 812.3 337.195 820.51 336.452C830.941 335.507 841.717 335.983 852.121 336.754C879.325 338.768 906.064 343.501 932.661 349.425C935.022 349.95 937.38 350.484 939.738 351.023C941.929 351.523 944.117 352.03 946.305 352.544C953.878 354.325 961.449 356.197 968.918 358.395" fill="#F0F0F0"/>
<path d="M793.771 378.157C793.771 366.826 791.01 355.183 798.448 345.532C803.626 338.813 812.3 337.195 820.51 336.452C830.941 335.507 841.717 335.983 852.121 336.754C879.325 338.768 906.064 343.501 932.661 349.425C935.022 349.95 937.38 350.484 939.738 351.023C941.929 351.523 944.117 352.03 946.305 352.544C953.878 354.325 961.449 356.197 968.918 358.395" stroke="#6B6B6B" stroke-width="2.98991" stroke-linecap="round" stroke-linejoin="round"/>
<path d="M981.95 377.54C982.301 375.203 980.69 373.03 978.353 372.679C961.365 370.14 944.377 367.602 927.389 365.063C900.643 361.066 873.88 357.194 847.123 353.274C832.67 351.156 818.242 348.992 803.601 348.992C801.24 348.992 799.323 350.906 799.323 353.27V368.352C799.323 370.713 797.41 372.63 795.045 372.63H764.972C762.611 372.63 760.694 370.717 760.694 368.352V353.27C760.694 350.909 758.78 348.992 756.415 348.992C737.952 348.992 719.7 351.94 701.475 354.59C682.661 357.326 663.898 360.396 645.098 363.206C624.474 366.286 603.85 369.369 583.226 372.45C582.713 372.526 582.199 372.602 581.685 372.679C579.348 373.03 577.736 375.203 578.087 377.54L579.851 389.354C580.202 391.691 582.376 393.303 584.713 392.952L735.285 370.453C737.868 370.067 740.195 372.068 740.195 374.683V388.847C740.195 391.209 742.108 393.125 744.473 393.125H815.543C817.905 393.125 819.822 391.212 819.822 388.847V374.679C819.822 372.064 822.145 370.064 824.732 370.449L975.325 392.952C977.662 393.303 979.836 391.691 980.186 389.354L981.95 377.54Z" fill="#6DA973"/>
<path d="M807.043 227.662C815.62 230.617 818.367 241.389 812.252 248.088L810.991 249.47" stroke="#94A8D2" stroke-width="3.59067" stroke-linecap="round" stroke-linejoin="round"/>
<path d="M919.151 235.982C918.068 232.895 916.755 229.874 915.564 226.829C914.512 224.134 913.46 221.439 912.408 218.744C911.428 216.234 908.393 216.234 907.414 218.744C906.258 221.7 905.105 224.658 903.948 227.613C903.146 229.666 902.243 231.673 901.472 233.736C900.719 235.75 899.906 237.951 899.906 240.129C899.906 245.667 904.396 250.158 909.939 250.158C915.481 250.158 919.967 245.667 919.967 240.129C919.967 238.684 919.62 237.316 919.151 235.979V235.982Z" fill="#94A8D2"/>
</g>
<defs>
<clipPath id="clip0_1118_10328">
<rect width="403.954" height="382" fill="white" transform="translate(578.047 40)"/>
</clipPath>
</defs>
</svg>
