<svg width="256" height="59" viewBox="0 0 256 59" fill="none" xmlns="http://www.w3.org/2000/svg">
<g clip-path="url(#clip0_1199_11300)">
<path d="M6.53167 57.389C5.22234 55.5662 5.82835 53.1825 5.54967 50.8983C5.54967 49.8534 5.35947 48.4739 6.08933 47.6732C8.44258 46.1173 12.4413 49.8082 13.1358 44.3804C13.9763 34.7505 13.9807 26.0796 13.6047 16.3231C13.5295 15.1787 13.4897 13.8308 12.866 12.9216C11.7292 11.1033 8.35854 12.3834 6.85016 11.2481C6.12914 10.7279 5.8947 9.80518 5.77969 8.94125C5.62487 6.89225 5.45236 4.66684 5.59833 2.61784C5.71334 1.02568 7.32788 0.700011 8.67702 0.989495C15.5289 2.19718 22.5621 1.9665 29.6263 1.30159C31.7141 1.00759 34.3815 1.09353 34.0718 3.95218C33.6516 6.34494 33.6295 9.23525 31.9707 11.0852C30.6658 12.3065 28.025 11.5059 27.0651 13.1388C26.5299 13.962 26.437 15.138 26.3574 16.1512C25.8 25.2337 25.7425 34.1444 25.9018 43.3581C25.946 44.5839 25.9858 46.0178 26.8484 46.8998C28.2108 48.3789 31.2674 47.0852 33.0102 47.732C34.7442 48.4558 34.001 50.7716 33.8197 52.2371C33.457 54.2047 33.2137 56.5025 31.8115 57.4795C30.9533 58.0947 29.759 58.1444 28.6974 58.0901C22.3763 57.6152 16.0508 57.5338 9.64133 58.063C8.63721 58.1173 7.4075 58.1489 6.66437 57.5112L6.53609 57.389H6.53167Z" fill="#2A2A2A"/>
<path d="M91.276 2.03157C91.5844 4.365 90.7978 7.08658 90.6324 9.52047C89.6938 16.9683 88.9385 24.48 88.7687 31.9872C88.5184 39.1656 88.5675 46.3577 88.8893 53.5771C88.943 54.7598 88.9743 56.3992 88.1653 57.1663C87.6916 57.6458 86.9318 57.8285 86.2345 57.8878C83.754 58.0385 80.3931 58.0431 77.8858 58.0933C76.0712 58.212 74.3818 57.5454 73.5371 55.7919C68.7459 45.4672 64.4821 34.896 58.9714 25.0189C57.6664 23.2517 57.501 26.2426 57.4876 27.2564C57.1569 36.1106 57.0138 44.8507 57.2865 53.6456C57.3937 55.3672 57.0183 57.5317 55.0205 57.6412C52.5668 57.8239 49.5724 57.7006 46.779 57.7554C43.7354 57.8239 42.6851 57.1207 43.199 53.7963C45.1387 37.4166 45.7913 21.6945 44.6516 5.12302C44.4907 3.42432 44.6829 1.23245 46.636 1.03152C49.4115 0.784937 53.0719 0.981293 55.8831 0.931063C56.9423 0.944762 58.0597 1.03152 58.8954 1.73932C59.6239 2.32838 60.12 3.34212 60.4999 4.25541C62.3592 8.80811 64.3525 13.2786 66.4263 17.8268C68.7459 22.8863 71.2488 28.1605 73.8455 33.1745C75.2801 35.96 75.9237 34.8503 75.9416 32.389C76.2053 23.1786 75.8656 13.9453 75.6868 4.74858C75.6868 3.81246 75.7315 2.62977 76.2008 1.92197C76.9785 0.666211 78.9897 0.958461 81.0903 0.894531C82.5205 0.894531 83.982 0.926496 85.4256 0.935629C86.7753 0.976727 87.7228 0.889965 89.1083 0.97216C90.1631 1.02239 90.9318 1.24614 91.2179 1.89001L91.276 2.03157Z" fill="#2A2A2A"/>
<path d="M128.148 56.8833C121.656 58.811 114.726 57.7319 108.08 57.944C105.425 57.6812 99.7901 59.5351 100.32 55.0479C101.158 46.8068 101.806 38.6257 101.752 30.2278C101.765 21.9545 101.339 13.7503 100.701 5.30631C100.184 1.00361 102.404 1.12813 105.797 1.20653C110.535 1.31721 115.274 0.828368 120.017 0.902155C124.524 0.971331 129.185 1.47862 133.321 3.42936C137.974 5.62452 140.95 9.57211 142.653 14.4144C144.017 18.2882 144.751 22.388 144.936 26.4924C145.122 30.5968 144.751 34.8948 143.695 38.9393C142.694 42.7854 141.059 46.5071 138.621 49.6338C136.184 52.7605 133.049 55.1217 129.407 56.4591C129.063 56.5836 128.714 56.7035 128.365 56.8095L128.148 56.8787V56.8833ZM130.68 28.9273C130.585 23.4902 129.983 16.9923 125.915 13.0447C123.613 10.7619 116.456 8.07332 115.188 12.7865C113.788 22.7385 113.543 33.6635 113.829 43.5971C113.638 48.0243 117.534 47.494 120.628 46.9175C128.515 45.368 130.739 36.1815 130.68 29.1395V28.9319V28.9273Z" fill="#2A2A2A"/>
<path d="M186.956 41.9329C170.16 42.501 175.707 40.1195 184.413 31.6977C186.197 30.1115 186.123 28.4844 184.413 26.8527C181.999 24.4712 179.301 22.2533 176.946 19.7944C171.76 13.6224 192.031 18.6446 193.723 15.5903C194.135 15.0768 194.295 14.345 194.35 13.6678C194.482 10.6182 194.652 7.53213 194.99 4.37793C195.182 2.92809 194.917 1.05102 193.129 0.923766C191.076 0.778327 188.968 1.21464 186.924 1.37372C178.766 2.01456 170.754 2.28271 162.4 2.09182C159.926 2.03728 156.478 1.41917 156.24 4.76425C154.599 19.6899 152.454 35.1246 155.344 50.0002C156.88 56.6313 164.54 57.8357 170.366 58.0039C175.848 58.222 181.509 58.0857 186.974 57.663C188.771 57.5403 190.66 57.0494 191.583 55.4133C193.133 52.2909 194.126 48.7185 194.912 45.3871C195.036 44.6599 195.081 43.7827 194.734 43.1646C193.582 41.233 189.324 42.1374 187.143 41.9329H186.946H186.956Z" fill="#2A2A2A"/>
<path d="M242.829 40.6294C240.764 37.6931 238.256 34.5121 236.347 31.4188C235.876 30.5785 235.557 29.6182 235.676 28.6395C235.783 27.6607 236.302 26.7142 236.84 25.8878C240.822 20.1491 244.973 14.7197 249.191 9.14254C250.887 7.00494 250.314 5.78147 248.143 4.50723C246.838 3.68081 245.475 2.82669 244.147 1.98643C242.318 0.919939 240.769 -0.502049 239.406 0.176627C238.771 0.472105 238.203 1.17386 237.79 1.82022C235.144 6.12774 232.617 10.5599 229.878 14.7566C228.764 16.6495 227.188 17.6606 225.718 15.4861C222.805 11.1924 220.204 6.53864 217.464 2.06953C217.016 1.38162 216.439 0.652162 215.733 0.375151C213.762 -0.234272 210.383 2.81284 208.203 3.82393C206.645 4.81194 205.122 5.36596 204.416 6.79256C203.817 8.09451 204.012 10.3752 204.007 12.2589C203.941 14.2118 204.549 15.5877 206.782 15.5969C210.094 15.7446 214.667 14.8351 214.241 19.692C214.228 24.4428 214.303 34.0596 214.223 38.7365C214.472 43.0948 209.087 41.7744 206.192 42.1761C203.839 42.4438 204.198 45.0154 204.181 46.9037C204.221 48.3811 204.087 49.9231 204.438 51.3682C205.091 53.8613 208.194 55.1032 210.152 56.7376C211.773 57.7948 214.099 60.2833 215.831 58.1826C219.116 53.2149 221.922 47.8548 225.301 42.8732C226.202 41.345 227.827 39.9831 229.256 41.7005C232.981 46.5251 236.049 51.8299 239.552 56.8992C240.036 57.5732 240.667 58.2796 241.39 58.5151C242.776 59.0368 244.636 57.1808 246.248 56.1512C247.735 54.8585 250.31 54.0413 250.465 51.9407C250.443 51.2805 250.092 50.5879 249.728 49.997C247.633 46.8206 244.92 43.6488 242.953 40.8002L242.824 40.6202L242.829 40.6294Z" fill="#2A2A2A"/>
</g>
<defs>
<clipPath id="clip0_1199_11300">
<rect width="254.897" height="59" fill="white" transform="translate(0.550781)"/>
</clipPath>
</defs>
</svg>
