<svg width="190" height="40" viewBox="0 0 190 40" fill="none" xmlns="http://www.w3.org/2000/svg">
<g clip-path="url(#clip0_1845_1245)">
<g clip-path="url(#clip1_1845_1245)">
<g clip-path="url(#clip2_1845_1245)">
<path d="M26.9202 38.2716C26.0624 37.0773 26.4594 35.5156 26.2768 34.019C26.2768 33.3345 26.1522 32.4306 26.6304 31.9061C28.1722 30.8867 30.792 33.3049 31.247 29.7487C31.7977 23.4396 31.8006 17.7587 31.5542 11.3666C31.5049 10.6168 31.4789 9.73371 31.0702 9.13806C30.3254 7.94676 28.1171 8.78541 27.1289 8.04159C26.6565 7.70079 26.5029 7.09625 26.4275 6.53023C26.3261 5.1878 26.2131 3.72979 26.3087 2.38735C26.3841 1.34423 27.4419 1.13086 28.3258 1.32052C32.8149 2.11175 37.4228 1.96062 42.051 1.52499C43.4189 1.33237 45.1664 1.38868 44.9636 3.26157C44.6883 4.82922 44.6738 6.72286 43.587 7.9349C42.7321 8.73503 41.0019 8.2105 40.373 9.2803C40.0224 9.81965 39.9615 10.5901 39.9093 11.2539C39.5442 17.2045 39.5065 23.0425 39.6108 29.079C39.6398 29.8821 39.6659 30.8215 40.231 31.3994C41.1236 32.3684 43.1262 31.5209 44.268 31.9446C45.4041 32.4188 44.9172 33.9361 44.7984 34.8962C44.5607 36.1853 44.4013 37.6907 43.4827 38.3308C42.9204 38.7339 42.138 38.7665 41.4424 38.7309C37.3011 38.4197 33.1568 38.3664 28.9575 38.7131C28.2997 38.7487 27.494 38.7694 27.0071 38.3516L26.9231 38.2716H26.9202Z" fill="#2A2A2A"/>
<path d="M82.4409 2.00325C82.6429 3.53203 82.1276 5.31512 82.0192 6.90972C81.4043 11.7893 80.9094 16.7107 80.7982 21.6291C80.6342 26.3322 80.6664 31.0442 80.8772 35.7742C80.9124 36.549 80.9329 37.6231 80.4029 38.1257C80.0925 38.4398 79.5947 38.5595 79.1379 38.5984C77.5128 38.6971 75.3108 38.7001 73.6681 38.733C72.4792 38.8108 71.3724 38.374 70.8189 37.2252C67.6799 30.4608 64.8865 23.5349 61.276 17.0637C60.421 15.9059 60.3127 17.8655 60.3039 18.5297C60.0872 24.3307 59.9935 30.0569 60.1721 35.819C60.2424 36.9469 59.9964 38.365 58.6875 38.4368C57.0799 38.5565 55.1181 38.4757 53.288 38.5116C51.2939 38.5565 50.6058 38.0957 50.9425 35.9178C52.2133 25.1863 52.6408 14.8857 51.8942 4.02866C51.7887 2.91573 51.9146 1.47969 53.1943 1.34805C55.0127 1.1865 57.4108 1.31514 59.2527 1.28223C59.9466 1.29121 60.6787 1.34805 61.2262 1.81178C61.7035 2.19771 62.0286 2.86188 62.2775 3.46023C63.4956 6.44301 64.8015 9.37193 66.1602 12.3517C67.6799 15.6666 69.3197 19.1221 71.021 22.407C71.9609 24.232 72.3826 23.505 72.3943 21.8924C72.5671 15.8581 72.3445 9.80873 72.2274 3.78334C72.2274 3.17003 72.2567 2.39517 72.5641 1.93145C73.0736 1.10871 74.3913 1.30019 75.7676 1.2583C76.7046 1.2583 77.6621 1.27924 78.6079 1.28523C79.4922 1.31215 80.113 1.25531 81.0207 1.30916C81.7118 1.34207 82.2154 1.48867 82.4028 1.9105L82.4409 2.00325Z" fill="#2A2A2A"/>
<path d="M106.599 37.9403C102.346 39.2032 97.805 38.4962 93.451 38.6352C91.7118 38.463 88.0198 39.6776 88.367 36.7377C88.9161 31.3385 89.3405 25.9785 89.3049 20.4765C89.3138 15.0561 89.0348 9.68096 88.6163 4.14875C88.278 1.32977 89.7322 1.41135 91.9552 1.46271C95.0597 1.53522 98.1641 1.21495 101.271 1.2633C104.225 1.30862 107.279 1.64097 109.988 2.91903C113.036 4.35722 114.986 6.94356 116.102 10.116C116.996 12.654 117.476 15.3401 117.598 18.0291C117.72 20.7182 117.476 23.5341 116.785 26.1839C116.129 28.7038 115.057 31.1421 113.461 33.1906C111.864 35.2391 109.81 36.7861 107.424 37.6623C107.198 37.7439 106.97 37.8224 106.741 37.8919L106.599 37.9372V37.9403ZM108.258 19.6244C108.196 16.0622 107.801 11.805 105.136 9.21868C103.628 7.72308 98.9387 5.9616 98.1077 9.04948C97.1906 15.5697 97.0303 22.7274 97.2173 29.2356C97.0927 32.1361 99.6451 31.7887 101.672 31.411C106.839 30.3958 108.297 24.3771 108.258 19.7634V19.6275V19.6244Z" fill="#2A2A2A"/>
<path d="M145.127 28.1452C134.123 28.5175 137.757 26.9571 143.462 21.4395C144.63 20.4002 144.582 19.3342 143.462 18.2652C141.88 16.7049 140.112 15.2518 138.569 13.6409C135.172 9.59715 148.453 12.8875 149.561 10.8865C149.831 10.55 149.936 10.0706 149.972 9.62693C150.059 7.62889 150.17 5.60703 150.391 3.54051C150.517 2.59062 150.343 1.36083 149.172 1.27745C147.827 1.18217 146.446 1.46803 145.106 1.57225C139.762 1.9921 134.513 2.16779 129.039 2.04272C127.419 2.00699 125.16 1.60202 125.004 3.79361C123.928 13.5724 122.523 23.6847 124.417 33.4307C125.423 37.7751 130.441 38.5642 134.258 38.6744C137.85 38.8173 141.559 38.728 145.139 38.4511C146.317 38.3707 147.554 38.0491 148.159 36.9771C149.175 34.9314 149.825 32.591 150.34 30.4083C150.421 29.9319 150.451 29.3572 150.224 28.9522C149.469 27.6867 146.679 28.2792 145.25 28.1452H145.121H145.127Z" fill="#2A2A2A"/>
<path d="M181.735 27.2919C180.382 25.3681 178.739 23.284 177.488 21.2574C177.18 20.7069 176.97 20.0777 177.049 19.4365C177.119 18.7952 177.459 18.1751 177.811 17.6337C180.42 13.8738 183.14 10.3167 185.903 6.66273C187.014 5.26225 186.639 4.46068 185.217 3.62583C184.362 3.08439 183.469 2.52481 182.599 1.97429C181.4 1.27556 180.385 0.343926 179.492 0.788571C179.076 0.982158 178.704 1.44193 178.434 1.8654C176.7 4.68754 175.045 7.59134 173.25 10.3409C172.52 11.5811 171.487 12.2435 170.525 10.8188C168.616 8.00574 166.912 4.95674 165.117 2.02874C164.823 1.57804 164.445 1.10013 163.983 0.918638C162.691 0.519364 160.478 2.51573 159.049 3.17816C158.028 3.82547 157.031 4.18844 156.568 5.12311C156.175 5.9761 156.303 7.47035 156.301 8.70447C156.257 9.98396 156.655 10.8853 158.119 10.8914C160.288 10.9882 163.285 10.3923 163.005 13.5744C162.997 16.6869 163.046 22.9876 162.994 26.0517C163.157 28.9071 159.628 28.042 157.732 28.3052C156.19 28.4806 156.426 30.1654 156.414 31.4026C156.44 32.3705 156.353 33.3808 156.583 34.3275C157.01 35.9609 159.044 36.7746 160.326 37.8454C161.388 38.5381 162.912 40.1684 164.047 38.7921C166.199 35.5375 168.037 32.0257 170.251 28.7619C170.842 27.7607 171.906 26.8684 172.843 27.9936C175.283 31.1545 177.293 34.63 179.588 37.9512C179.905 38.3929 180.318 38.8557 180.793 39.0099C181.7 39.3517 182.919 38.1358 183.975 37.4612C184.949 36.6143 186.636 36.0789 186.738 34.7026C186.724 34.2701 186.494 33.8163 186.255 33.4292C184.882 31.3481 183.105 29.2701 181.816 27.4038L181.732 27.2858L181.735 27.2919Z" fill="#2A2A2A"/>
</g>
</g>
</g>
<defs>
<clipPath id="clip0_1845_1245">
<rect width="190" height="38.6548" fill="white" transform="translate(0 0.672852)"/>
</clipPath>
<clipPath id="clip1_1845_1245">
<rect width="167" height="38.6548" fill="white" transform="translate(23 0.672852)"/>
</clipPath>
<clipPath id="clip2_1845_1245">
<rect width="190" height="38.6548" fill="white" transform="translate(11.5 0.672852)"/>
</clipPath>
</defs>
</svg>
