<svg width="137" height="33" viewBox="0 0 137 33" fill="none" xmlns="http://www.w3.org/2000/svg">
<path d="M0.561742 32.0986C-0.170595 31.0791 0.168358 29.7458 0.0124893 28.4682C0.0124893 27.8838 -0.0938975 27.1122 0.314331 26.6644C1.63056 25.7941 3.86715 27.8585 4.25559 24.8226C4.72567 19.4364 4.72814 14.5866 4.51784 9.12953C4.47578 8.48946 4.45352 7.73554 4.10467 7.22703C3.46882 6.21 1.58355 6.92597 0.739878 6.29096C0.336598 6.00002 0.20547 5.48392 0.141143 5.00071C0.0545491 3.85465 -0.0419412 2.60994 0.0397045 1.46388C0.104031 0.573355 1.00708 0.391201 1.76168 0.553115C5.59408 1.2286 9.52792 1.09958 13.4791 0.727679C14.6468 0.563235 16.1387 0.611303 15.9655 2.21021C15.7305 3.54853 15.7181 5.16515 14.7903 6.19988C14.0605 6.88296 12.5834 6.43517 12.0466 7.34847C11.7472 7.80891 11.6952 8.46669 11.6507 9.03339C11.339 14.1135 11.3068 19.0974 11.3959 24.2508C11.4206 24.9364 11.4429 25.7384 11.9253 26.2317C12.6874 27.059 14.397 26.3355 15.3718 26.6973C16.3416 27.102 15.926 28.3974 15.8245 29.217C15.6216 30.3176 15.4856 31.6028 14.7013 32.1492C14.2213 32.4933 13.5533 32.5211 12.9595 32.4908C9.424 32.2251 5.88603 32.1796 2.30104 32.4756C1.73942 32.5059 1.05162 32.5236 0.635965 32.1669L0.564216 32.0986H0.561742Z" fill="#9BC99F"/>
<path d="M47.9603 1.13597C48.1328 2.44111 47.6928 3.96335 47.6003 5.32468C47.0754 9.4904 46.6529 13.6919 46.5579 17.8908C46.4179 21.9058 46.4454 25.9285 46.6254 29.9665C46.6554 30.6281 46.6729 31.545 46.2204 31.9741C45.9555 32.2422 45.5305 32.3444 45.1405 32.3776C43.7531 32.4619 41.8733 32.4644 40.4709 32.4925C39.4559 32.5589 38.511 32.1861 38.0385 31.2053C35.3587 25.4305 32.9739 19.5178 29.8917 13.9933C29.1617 13.0048 29.0692 14.6778 29.0617 15.2448C28.8767 20.1971 28.7967 25.0857 28.9492 30.0049C29.0092 30.9678 28.7992 32.1784 27.6818 32.2397C26.3094 32.3419 24.6345 32.2729 23.0722 32.3035C21.3698 32.3419 20.7823 31.9485 21.0698 30.0891C22.1547 20.9276 22.5197 12.1339 21.8823 2.86509C21.7923 1.91497 21.8998 0.689003 22.9922 0.576623C24.5446 0.438702 26.5919 0.548528 28.1643 0.520433C28.7567 0.528095 29.3817 0.576623 29.8492 0.972507C30.2566 1.30198 30.5341 1.86899 30.7466 2.37981C31.7865 4.92624 32.9014 7.42669 34.0613 9.97057C35.3587 12.8005 36.7586 15.7505 38.211 18.5549C39.0135 20.1129 39.3734 19.4922 39.3834 18.1156C39.5309 12.964 39.341 7.79959 39.241 2.65565C39.241 2.13206 39.266 1.47055 39.5284 1.07467C39.9634 0.372296 41.0883 0.535757 42.2632 0.5C43.0632 0.5 43.8806 0.517879 44.6881 0.522987C45.443 0.545974 45.973 0.497446 46.7479 0.54342C47.3379 0.571515 47.7678 0.696665 47.9278 1.05679L47.9603 1.13597Z" fill="#9BC99F"/>
<path d="M68.5843 31.8158C64.9535 32.894 61.0768 32.2904 57.3598 32.409C55.8751 32.262 52.7231 33.2989 53.0195 30.7892C53.4883 26.1798 53.8506 21.6039 53.8202 16.9068C53.8278 12.2793 53.5896 7.69051 53.2324 2.9676C52.9435 0.561011 54.1851 0.630656 56.0828 0.674506C58.7331 0.736412 61.3834 0.462994 64.0362 0.504264C66.5573 0.542956 69.1645 0.826691 71.4778 1.91778C74.08 3.14558 75.7447 5.35356 76.6973 8.06195C77.46 10.2287 77.8705 12.5218 77.9743 14.8174C78.0782 17.1131 77.8705 19.5171 77.2801 21.7793C76.7201 23.9305 75.8055 26.0121 74.4423 27.7609C73.0792 29.5098 71.3258 30.8304 69.2887 31.5785C69.0961 31.6481 68.901 31.7152 68.7059 31.7745L68.5843 31.8132V31.8158ZM70.0007 16.1794C69.9475 13.1382 69.6105 9.50384 67.3352 7.29586C66.048 6.01905 62.0447 4.51525 61.3353 7.15141C60.5524 12.7178 60.4155 18.8284 60.5752 24.3845C60.4687 26.8607 62.6478 26.5641 64.3783 26.2417C68.7895 25.375 70.0336 20.2368 70.0007 16.298V16.1819V16.1794Z" fill="#9BC99F"/>
<path d="M101.476 23.4537C92.0822 23.7714 95.1847 22.4394 100.054 17.7289C101.052 16.8417 101.011 15.9316 100.054 15.019C98.704 13.6869 97.195 12.4464 95.8778 11.0711C92.9774 7.61896 104.315 10.428 105.262 8.71969C105.492 8.43243 105.582 8.02316 105.612 7.64438C105.686 5.93864 105.781 4.21256 105.97 2.44834C106.078 1.63742 105.929 0.58753 104.929 0.516352C103.781 0.435005 102.602 0.679046 101.459 0.768019C96.8958 1.12645 92.4147 1.27644 87.7419 1.16967C86.3582 1.13916 84.4298 0.79344 84.2968 2.66442C83.3786 11.0127 82.179 19.6456 83.7954 27.9659C84.6548 31.6748 88.9389 32.3485 92.1973 32.4425C95.264 32.5645 98.4303 32.4883 101.487 32.2519C102.492 32.1832 103.548 31.9087 104.065 30.9935C104.932 29.2471 105.487 27.249 105.927 25.3857C105.996 24.9789 106.021 24.4883 105.827 24.1426C105.183 23.0622 102.801 23.5681 101.581 23.4537H101.471H101.476Z" fill="#9BC99F"/>
<path d="M132.729 22.7249C131.574 21.0826 130.171 19.3034 129.103 17.5732C128.84 17.1033 128.661 16.5661 128.728 16.0187C128.788 15.4712 129.078 14.9419 129.379 14.4796C131.606 11.2698 133.928 8.23304 136.287 5.11362C137.236 3.91802 136.916 3.23371 135.701 2.52099C134.971 2.05876 134.209 1.58103 133.466 1.11105C132.443 0.514542 131.577 -0.280807 130.814 0.0987912C130.459 0.264059 130.141 0.656569 129.91 1.01809C128.43 3.42738 127.017 5.90639 125.485 8.2537C124.862 9.31245 123.98 9.87797 123.158 8.66171C121.529 6.26017 120.074 3.6572 118.542 1.15754C118.291 0.772772 117.968 0.364768 117.573 0.20983C116.471 -0.131034 114.581 1.57329 113.362 2.13881C112.49 2.69142 111.638 3.0013 111.244 3.79923C110.908 4.52744 111.018 5.8031 111.015 6.85668C110.978 7.94899 111.318 8.71852 112.567 8.72368C114.42 8.80631 116.977 8.2976 116.739 11.0142C116.732 13.6714 116.774 19.0503 116.729 21.6662C116.868 24.1039 113.856 23.3653 112.237 23.59C110.921 23.7398 111.122 25.1781 111.112 26.2343C111.134 27.0606 111.06 27.9231 111.256 28.7314C111.621 30.1258 113.357 30.8204 114.452 31.7346C115.358 32.3259 116.66 33.7178 117.628 32.5428C119.466 29.7643 121.035 26.7662 122.925 23.9799C123.429 23.1252 124.338 22.3634 125.137 23.324C127.221 26.0225 128.937 28.9896 130.896 31.825C131.167 32.202 131.519 32.5971 131.924 32.7288C132.699 33.0206 133.739 31.9825 134.641 31.4066C135.473 30.6836 136.913 30.2265 137 29.0516C136.988 28.6823 136.791 28.295 136.588 27.9644C135.416 26.1878 133.898 24.4138 132.798 22.8205L132.726 22.7198L132.729 22.7249Z" fill="#9BC99F"/>
</svg>
