<svg width="22" height="22" viewBox="0 0 22 22" fill="none" xmlns="http://www.w3.org/2000/svg">
<path d="M18.2188 3.4375H3.78125C3.14328 3.43818 2.53164 3.69192 2.08053 4.14303C1.62942 4.59414 1.37568 5.20578 1.375 5.84375V16.1562C1.37568 16.7942 1.62942 17.4059 2.08053 17.857C2.53164 18.3081 3.14328 18.5618 3.78125 18.5625H18.2188C18.8567 18.5618 19.4684 18.3081 19.9195 17.857C20.3706 17.4059 20.6243 16.7942 20.625 16.1562V5.84375C20.6243 5.20578 20.3706 4.59414 19.9195 4.14303C19.4684 3.69192 18.8567 3.43818 18.2188 3.4375ZM17.6095 7.4177L11.422 12.2302C11.3013 12.324 11.1528 12.3749 11 12.3749C10.8472 12.3749 10.6987 12.324 10.578 12.2302L4.39055 7.4177C4.31785 7.3628 4.25679 7.294 4.21091 7.21529C4.16503 7.13659 4.13525 7.04956 4.1233 6.95925C4.11135 6.86893 4.11747 6.77715 4.1413 6.68922C4.16513 6.6013 4.2062 6.51898 4.26211 6.44707C4.31803 6.37515 4.38768 6.31506 4.46702 6.2703C4.54636 6.22553 4.63381 6.19698 4.72428 6.1863C4.81475 6.17562 4.90644 6.18303 4.99402 6.2081C5.0816 6.23316 5.16333 6.27538 5.23445 6.3323L11 10.8165L16.7655 6.3323C16.9097 6.22343 17.0909 6.17568 17.27 6.19938C17.4491 6.22308 17.6117 6.31632 17.7226 6.45894C17.8335 6.60157 17.8838 6.78211 17.8626 6.96152C17.8414 7.14094 17.7505 7.30481 17.6095 7.4177Z" fill="#D2DEF4"/>
</svg>
