<svg width="60" height="58" viewBox="0 0 60 58" fill="none" xmlns="http://www.w3.org/2000/svg">
<g clip-path="url(#clip0_2184_6312)">
<path d="M20.1239 57.0095V56.6363C20.1239 56.7617 20.1267 56.8856 20.1339 57.0095C22.3199 57.217 24.614 57.328 26.9801 57.328C29.4946 57.328 31.9285 57.2026 34.2369 56.9706C34.2427 56.8596 34.2456 56.7487 34.2456 56.6363V56.9692C38.3971 56.5498 42.1437 55.7803 45.2288 54.7544V41.8287C45.2288 41.5419 45.2072 41.2609 45.164 40.9857C44.5458 31.5919 36.7356 24.1621 27.1847 24.1621C17.6338 24.1621 9.82366 31.5919 9.20547 40.9857C9.16368 41.2609 9.14062 41.5419 9.14062 41.8287V54.8884C12.2488 55.8812 15.9925 56.6176 20.1239 57.0095Z" fill="#D9D9D9"/>
<path d="M24.6943 46.6768H29.428" stroke="#6B6B6B" stroke-width="1.49575" stroke-linecap="round" stroke-linejoin="round"/>
<path d="M20.1901 42.809C20.8189 42.809 21.3285 42.2993 21.3285 41.6706C21.3285 41.0419 20.8189 40.5322 20.1901 40.5322C19.5614 40.5322 19.0518 41.0419 19.0518 41.6706C19.0518 42.2993 19.5614 42.809 20.1901 42.809Z" fill="#6B6B6B"/>
<path d="M27.06 43.915C28.2991 43.915 29.3037 42.9105 29.3037 41.6714C29.3037 40.4322 28.2991 39.4277 27.06 39.4277C25.8209 39.4277 24.8164 40.4322 24.8164 41.6714C24.8164 42.9105 25.8209 43.915 27.06 43.915Z" fill="#A0A0A0"/>
<path d="M33.9323 42.809C34.561 42.809 35.0707 42.2993 35.0707 41.6706C35.0707 41.0419 34.561 40.5322 33.9323 40.5322C33.3036 40.5322 32.7939 41.0419 32.7939 41.6706C32.7939 42.2993 33.3036 42.809 33.9323 42.809Z" fill="#6B6B6B"/>
<path d="M20.1292 57.0119C20.1235 56.888 20.1191 56.764 20.1191 56.6387V57.0119C20.1191 57.0119 20.1263 57.0119 20.1292 57.0119Z" fill="#6B6B6B"/>
<path d="M34.2411 56.9706V56.6377C34.2411 56.7501 34.2382 56.861 34.2324 56.9706C34.2353 56.9706 34.2382 56.9706 34.2411 56.9706Z" fill="#6B6B6B"/>
<path d="M9.13589 41.829C9.13589 41.5422 9.1575 41.2612 9.20073 40.986C9.21802 40.7223 9.24252 40.46 9.2699 40.1992C3.59095 41.9904 0 44.6259 0 47.5656C0 50.5052 3.53475 53.099 9.13589 54.8887V41.829Z" fill="#6B6B6B"/>
<path d="M45.1045 40.3359C45.1261 40.5521 45.1463 40.7682 45.1607 40.9858C45.2025 41.2611 45.2255 41.542 45.2255 41.8288V54.7545C50.5889 52.9706 53.9522 50.4099 53.9522 47.5654C53.9522 44.7209 50.5399 42.1213 45.1059 40.3359H45.1045Z" fill="#6B6B6B"/>
<path d="M21.3281 36.1713V37.4841C21.3281 37.621 21.4838 37.6901 21.5745 37.5936L22.8051 36.2808C22.8613 36.2203 22.9536 36.2203 23.0098 36.2808L24.2404 37.5936C24.3312 37.6916 24.4868 37.6224 24.4868 37.4841V36.1713V28.9765C24.4868 28.8914 24.4219 28.8223 24.3427 28.8223H21.4722C21.393 28.8223 21.3281 28.8914 21.3281 28.9765V36.1713Z" fill="#6B6B6B"/>
<path d="M23.4912 21.7012L24.7723 26.259" stroke="#6B6B6B" stroke-width="1.49575" stroke-linecap="round" stroke-linejoin="round"/>
<path d="M28.2002 20.9912L28.5936 25.7105" stroke="#6B6B6B" stroke-width="1.49575" stroke-linecap="round" stroke-linejoin="round"/>
<path d="M29.5436 30.1469L47.4551 42.4933C48.1741 42.989 49.1655 42.5855 49.3341 41.7281L48.8197 36.1904L30.3332 28.6555C30.1819 28.5964 30.0162 28.582 29.8563 28.6151C29.1228 28.765 28.9283 29.7218 29.545 30.1454L29.5436 30.1469Z" fill="#F0F0F0"/>
<path d="M51.6084 38.4604L50.5623 26.3618C50.5248 25.9252 50.2597 25.5419 49.8648 25.3531L29.6996 15.687C28.6016 15.161 27.3263 15.1509 26.2211 15.6596L5.90452 24.9986C5.50681 25.1817 5.2359 25.5606 5.18979 25.9958L3.9491 38.0756C3.85255 39.0224 4.81513 39.7198 5.68405 39.3322L26.1432 30.1934C27.2269 29.7092 28.4661 29.7193 29.5411 30.2208L49.8519 39.6881C50.715 40.0901 51.6891 39.4086 51.607 38.4604H51.6084Z" fill="#A0A0A0"/>
<path d="M26.3476 18.2295L26.2236 27.6478" stroke="#D9D9D9" stroke-width="0.817042" stroke-linecap="round" stroke-linejoin="round"/>
<path d="M29.6122 18.2695L29.4883 27.6893" stroke="#D9D9D9" stroke-width="0.817042" stroke-linecap="round" stroke-linejoin="round"/>
<path d="M57.5216 0.157227H41.4819C40.1139 0.157227 39.0049 1.26625 39.0049 2.63429V9.56114C39.0049 10.9292 40.1139 12.0382 41.4819 12.0382H57.5216C58.8897 12.0382 59.9987 10.9292 59.9987 9.56114V2.63429C59.9987 1.26625 58.8897 0.157227 57.5216 0.157227Z" fill="#D9D9D9"/>
<path d="M42.1875 12.0413L43.4902 14.4377C43.8187 15.0415 44.4931 15.04 44.8216 14.4377L46.1257 12.0312L42.1889 12.0428L42.1875 12.0413Z" fill="#D9D9D9"/>
<path d="M49.5029 7.13367C50.0751 7.13367 50.5389 6.6698 50.5389 6.0976C50.5389 5.52539 50.0751 5.06152 49.5029 5.06152C48.9307 5.06152 48.4668 5.52539 48.4668 6.0976C48.4668 6.6698 48.9307 7.13367 49.5029 7.13367Z" fill="#6B6B6B"/>
<path d="M44.9316 7.13367C45.5038 7.13367 45.9677 6.6698 45.9677 6.0976C45.9677 5.52539 45.5038 5.06152 44.9316 5.06152C44.3594 5.06152 43.8955 5.52539 43.8955 6.0976C43.8955 6.6698 44.3594 7.13367 44.9316 7.13367Z" fill="#6B6B6B"/>
<path d="M54.0732 7.13367C54.6454 7.13367 55.1093 6.6698 55.1093 6.0976C55.1093 5.52539 54.6454 5.06152 54.0732 5.06152C53.501 5.06152 53.0371 5.52539 53.0371 6.0976C53.0371 6.6698 53.501 7.13367 54.0732 7.13367Z" fill="#6B6B6B"/>
</g>
<defs>
<clipPath id="clip0_2184_6312">
<rect width="60" height="57.1728" fill="white" transform="translate(0 0.157227)"/>
</clipPath>
</defs>
</svg>
