<svg width="60" height="59" viewBox="0 0 60 59" fill="none" xmlns="http://www.w3.org/2000/svg">
<g clip-path="url(#clip0_2168_28135)">
<path d="M20.1239 57.7663V57.3931C20.1239 57.5185 20.1267 57.6424 20.1339 57.7663C22.3199 57.9739 24.614 58.0848 26.9801 58.0848C29.4946 58.0848 31.9285 57.9594 34.2369 57.7274C34.2427 57.6165 34.2456 57.5055 34.2456 57.3931V57.726C38.3971 57.3067 42.1437 56.5372 45.2288 55.5112V42.5855C45.2288 42.2987 45.2072 42.0177 45.164 41.7425C44.5458 32.3487 36.7356 24.9189 27.1847 24.9189C17.6338 24.9189 9.82366 32.3487 9.20547 41.7425C9.16368 42.0177 9.14062 42.2987 9.14062 42.5855V55.6452C12.2488 56.6381 15.9925 57.3744 20.1239 57.7663Z" fill="#D9D9D9"/>
<path d="M24.6943 47.4326H29.428" stroke="#6B6B6B" stroke-width="1.49575" stroke-linecap="round" stroke-linejoin="round"/>
<path d="M20.1901 43.5658C20.8189 43.5658 21.3285 43.0562 21.3285 42.4274C21.3285 41.7987 20.8189 41.2891 20.1901 41.2891C19.5614 41.2891 19.0518 41.7987 19.0518 42.4274C19.0518 43.0562 19.5614 43.5658 20.1901 43.5658Z" fill="#6B6B6B"/>
<path d="M27.06 44.6713C28.2991 44.6713 29.3037 43.6668 29.3037 42.4277C29.3037 41.1886 28.2991 40.1841 27.06 40.1841C25.8209 40.1841 24.8164 41.1886 24.8164 42.4277C24.8164 43.6668 25.8209 44.6713 27.06 44.6713Z" fill="#A0A0A0"/>
<path d="M33.9323 43.5658C34.561 43.5658 35.0707 43.0562 35.0707 42.4274C35.0707 41.7987 34.561 41.2891 33.9323 41.2891C33.3036 41.2891 32.7939 41.7987 32.7939 42.4274C32.7939 43.0562 33.3036 43.5658 33.9323 43.5658Z" fill="#6B6B6B"/>
<path d="M20.1292 57.7682C20.1235 57.6443 20.1191 57.5204 20.1191 57.395V57.7682C20.1191 57.7682 20.1263 57.7682 20.1292 57.7682Z" fill="#6B6B6B"/>
<path d="M34.2411 57.7264V57.3936C34.2411 57.506 34.2382 57.6169 34.2324 57.7264C34.2353 57.7264 34.2382 57.7264 34.2411 57.7264Z" fill="#6B6B6B"/>
<path d="M9.13589 42.5853C9.13589 42.2986 9.1575 42.0176 9.20073 41.7423C9.21802 41.4786 9.24252 41.2164 9.2699 40.9556C3.59095 42.7467 0 45.3823 0 48.3219C0 51.2615 3.53475 53.8553 9.13589 55.645V42.5853Z" fill="#6B6B6B"/>
<path d="M45.1045 41.0923C45.1261 41.3084 45.1463 41.5246 45.1607 41.7422C45.2025 42.0174 45.2255 42.2984 45.2255 42.5852V55.5108C50.5889 53.7269 53.9522 51.1663 53.9522 48.3217C53.9522 45.4772 50.5399 42.8777 45.1059 41.0923H45.1045Z" fill="#6B6B6B"/>
<path d="M21.3281 36.9277V38.2404C21.3281 38.3773 21.4838 38.4465 21.5745 38.3499L22.8051 37.0372C22.8613 36.9767 22.9536 36.9767 23.0098 37.0372L24.2404 38.3499C24.3312 38.4479 24.4868 38.3788 24.4868 38.2404V36.9277V29.7328C24.4868 29.6478 24.4219 29.5786 24.3427 29.5786H21.4722C21.393 29.5786 21.3281 29.6478 21.3281 29.7328V36.9277Z" fill="#6B6B6B"/>
<path d="M23.4912 22.458L24.7723 27.0159" stroke="#6B6B6B" stroke-width="1.49575" stroke-linecap="round" stroke-linejoin="round"/>
<path d="M28.2002 21.748L28.5936 26.4673" stroke="#6B6B6B" stroke-width="1.49575" stroke-linecap="round" stroke-linejoin="round"/>
<path d="M29.5436 30.9032L47.4551 43.2496C48.1741 43.7453 49.1655 43.3419 49.3341 42.4845L48.8197 36.9467L30.3332 29.4118C30.1819 29.3527 30.0162 29.3383 29.8563 29.3715C29.1228 29.5213 28.9283 30.4781 29.545 30.9018L29.5436 30.9032Z" fill="#F0F0F0"/>
<path d="M51.6084 39.2172L50.5623 27.1187C50.5248 26.682 50.2597 26.2987 49.8648 26.11L29.6996 16.4438C28.6016 15.9178 27.3263 15.9077 26.2211 16.4164L5.90452 25.7555C5.50681 25.9385 5.2359 26.3175 5.18979 26.7526L3.9491 38.8325C3.85255 39.7792 4.81513 40.4766 5.68405 40.089L26.1432 30.9503C27.2269 30.4661 28.4661 30.4762 29.5411 30.9776L49.8519 40.4449C50.715 40.847 51.6891 40.1654 51.607 39.2172H51.6084Z" fill="#A0A0A0"/>
<path d="M26.3476 18.9858L26.2236 28.4042" stroke="#D9D9D9" stroke-width="0.817042" stroke-linecap="round" stroke-linejoin="round"/>
<path d="M29.6122 19.0259L29.4883 28.4456" stroke="#D9D9D9" stroke-width="0.817042" stroke-linecap="round" stroke-linejoin="round"/>
<path d="M57.5216 0.913574H41.4819C40.1139 0.913574 39.0049 2.02259 39.0049 3.39064V10.3175C39.0049 11.6855 40.1139 12.7945 41.4819 12.7945H57.5216C58.8897 12.7945 59.9987 11.6855 59.9987 10.3175V3.39064C59.9987 2.02259 58.8897 0.913574 57.5216 0.913574Z" fill="#D9D9D9"/>
<path d="M42.1875 12.7972L43.4902 15.1936C43.8187 15.7973 44.4931 15.7959 44.8216 15.1936L46.1257 12.7871L42.1889 12.7986L42.1875 12.7972Z" fill="#D9D9D9"/>
<path d="M49.5029 7.88953C50.0751 7.88953 50.5389 7.42566 50.5389 6.85346C50.5389 6.28125 50.0751 5.81738 49.5029 5.81738C48.9307 5.81738 48.4668 6.28125 48.4668 6.85346C48.4668 7.42566 48.9307 7.88953 49.5029 7.88953Z" fill="#6B6B6B"/>
<path d="M44.9316 7.88953C45.5038 7.88953 45.9677 7.42566 45.9677 6.85346C45.9677 6.28125 45.5038 5.81738 44.9316 5.81738C44.3594 5.81738 43.8955 6.28125 43.8955 6.85346C43.8955 7.42566 44.3594 7.88953 44.9316 7.88953Z" fill="#6B6B6B"/>
<path d="M54.0732 7.88953C54.6454 7.88953 55.1093 7.42566 55.1093 6.85346C55.1093 6.28125 54.6454 5.81738 54.0732 5.81738C53.501 5.81738 53.0371 6.28125 53.0371 6.85346C53.0371 7.42566 53.501 7.88953 54.0732 7.88953Z" fill="#6B6B6B"/>
</g>
<defs>
<clipPath id="clip0_2168_28135">
<rect width="60" height="57.1728" fill="white" transform="translate(0 0.913574)"/>
</clipPath>
</defs>
</svg>
