<svg width="36" height="42" viewBox="0 0 36 42" fill="none" xmlns="http://www.w3.org/2000/svg">
<path d="M35.3144 19.8036C34.7193 10.7569 27.1964 3.60352 18.0009 3.60352C8.80542 3.60352 1.28251 10.7593 0.687392 19.8036C0.646597 20.0675 0.625 20.3387 0.625 20.6147V36.3852C0.625 39.3056 2.99346 41.674 5.91384 41.674C8.83422 41.674 11.2027 39.3056 11.2027 36.3852V34.8734C11.2027 38.6289 14.2478 41.6716 18.0009 41.6716C21.7564 41.6716 24.7991 38.6265 24.7991 34.8734V36.3852C24.7991 39.3056 27.1676 41.674 30.088 41.674C33.0083 41.674 35.3768 39.3056 35.3768 36.3852V20.6147C35.3768 20.3387 35.3552 20.0675 35.3144 19.8036Z" fill="#D2DEF4"/>
<path d="M20.0198 16.7351L20.027 16.9966L19.9742 17.251L19.9166 17.5078L19.8039 17.7453L19.6431 17.9517L19.5015 18.1725L19.3023 18.3428L19.1008 18.5036L18.8776 18.638L18.6424 18.7484L18.3929 18.8132L18.1409 18.89L17.8793 18.8972L17.6202 18.8708L17.3658 18.8156L17.1066 18.7748L16.8787 18.6428L16.6627 18.4964L16.4347 18.3668L16.25 18.1773L16.1012 17.9637L15.9692 17.7381L15.866 17.4982L15.7748 17.2534L15.734 16.9966L15.7148 16.7351L15.7532 16.4759L15.7676 16.2144L15.8564 15.9672L15.9764 15.7344L16.1108 15.5137L16.2524 15.2929L16.4467 15.1177L16.6579 14.9665L16.8763 14.825L17.1114 14.7122L17.3586 14.6234L17.6226 14.6114L17.8793 14.5586L18.1433 14.5706L18.4025 14.6186L18.64 14.729L18.8824 14.825L19.096 14.9737L19.3095 15.1225L19.5015 15.2977L19.6671 15.5017L19.7799 15.7392L19.8878 15.9744L19.9718 16.2192L20.0246 16.4759L20.0198 16.7351Z" fill="#9AC99E"/>
<path d="M12.405 16.7382L12.3618 17.0285L12.2418 17.2925L12.0546 17.5156L11.8194 17.6836L11.5531 17.8036L11.2603 17.8252L10.97 17.806L10.7036 17.6836L10.4636 17.5204L10.2717 17.2973L10.1541 17.0285L10.1133 16.7382L10.1637 16.4502L10.2813 16.1838L10.4612 15.9535L10.7012 15.7879L10.97 15.6727L11.2603 15.6367L11.5531 15.6727L11.8242 15.7855L12.0594 15.9559L12.237 16.1862L12.3666 16.4478L12.405 16.7382Z" fill="#373737"/>
<path d="M25.6408 16.7382L25.5976 17.0285L25.4777 17.2925L25.2929 17.5156L25.0553 17.6836L24.789 17.8036L24.4986 17.8252L24.2058 17.806L23.9419 17.6836L23.6995 17.5204L23.5099 17.2973L23.39 17.0285L23.3516 16.7382L23.3996 16.4502L23.5171 16.1838L23.6971 15.9535L23.9371 15.7879L24.2058 15.6727L24.4986 15.6367L24.789 15.6727L25.0601 15.7855L25.2953 15.9559L25.4729 16.1862L25.6024 16.4478L25.6408 16.7382Z" fill="#373737"/>
<path d="M15.6016 21.5547H20.1609" stroke="#373737" stroke-width="1.20505" stroke-linecap="round" stroke-linejoin="round"/>
<path d="M15.7031 1.33984L16.2819 5.86319" stroke="#373737" stroke-width="1.20505" stroke-linecap="round" stroke-linejoin="round"/>
<path d="M20.2909 1.32617L20.0039 5.87832" stroke="#373737" stroke-width="1.20505" stroke-linecap="round" stroke-linejoin="round"/>
</svg>
