<svg width="36" height="42" viewBox="0 0 36 42" fill="none" xmlns="http://www.w3.org/2000/svg">
<path d="M35.3134 19.4774C34.7183 10.4307 27.1954 3.27734 17.9999 3.27734C8.80445 3.27734 1.28153 10.4331 0.686415 19.4774C0.645621 19.7414 0.624023 20.0125 0.624023 20.2885V36.059C0.624023 38.9794 2.99248 41.3479 5.91286 41.3479C8.83324 41.3479 11.2017 38.9794 11.2017 36.059V34.5472C11.2017 38.3027 14.2469 41.3455 17.9999 41.3455C21.7554 41.3455 24.7981 38.3003 24.7981 34.5472V36.059C24.7981 38.9794 27.1666 41.3479 30.087 41.3479C33.0074 41.3479 35.3758 38.9794 35.3758 36.059V20.2885C35.3758 20.0125 35.3542 19.7414 35.3134 19.4774Z" fill="#D2DEF4"/>
<path d="M20.0206 16.4094L20.0278 16.671L19.975 16.9253L19.9174 17.1821L19.8046 17.4197L19.6438 17.626L19.5022 17.8468L19.3031 18.0172L19.1015 18.1779L18.8783 18.3123L18.6432 18.4227L18.3936 18.4875L18.1416 18.5643L17.8801 18.5715L17.6209 18.5451L17.3665 18.4899L17.1074 18.4491L16.8794 18.3171L16.6634 18.1707L16.4355 18.0412L16.2507 17.8516L16.1019 17.638L15.9699 17.4125L15.8668 17.1725L15.7756 16.9277L15.7348 16.671L15.7156 16.4094L15.754 16.1502L15.7684 15.8887L15.8572 15.6415L15.9771 15.4087L16.1115 15.188L16.2531 14.9672L16.4475 14.792L16.6586 14.6409L16.877 14.4993L17.1122 14.3865L17.3593 14.2977L17.6233 14.2857L17.8801 14.2329L18.144 14.2449L18.4032 14.2929L18.6408 14.4033L18.8831 14.4993L19.0967 14.648L19.3103 14.7968L19.5022 14.972L19.6678 15.176L19.7806 15.4135L19.8886 15.6487L19.9726 15.8935L20.0254 16.1502L20.0206 16.4094Z" fill="#9AC99E"/>
<path d="M12.4032 16.411L12.36 16.7014L12.2401 16.9653L12.0529 17.1885L11.8177 17.3565L11.5514 17.4765L11.2586 17.4981L10.9682 17.4789L10.7019 17.3565L10.4619 17.1933L10.2699 16.9701L10.1524 16.7014L10.1116 16.411L10.162 16.1231L10.2795 15.8567L10.4595 15.6263L10.6995 15.4607L10.9682 15.3456L11.2586 15.3096L11.5514 15.3456L11.8225 15.4583L12.0577 15.6287L12.2353 15.8591L12.3648 16.1207L12.4032 16.411Z" fill="#373737"/>
<path d="M25.6401 16.411L25.5969 16.7014L25.4769 16.9653L25.2922 17.1885L25.0546 17.3565L24.7882 17.4765L24.4979 17.4981L24.2051 17.4789L23.9411 17.3565L23.6988 17.1933L23.5092 16.9701L23.3892 16.7014L23.3508 16.411L23.3988 16.1231L23.5164 15.8567L23.6964 15.6263L23.9363 15.4607L24.2051 15.3456L24.4979 15.3096L24.7882 15.3456L25.0594 15.4583L25.2945 15.6287L25.4721 15.8591L25.6017 16.1207L25.6401 16.411Z" fill="#373737"/>
<path d="M15.5999 21.2295H20.1592" stroke="#373737" stroke-width="1.20505" stroke-linecap="round" stroke-linejoin="round"/>
<path d="M15.7029 1.01416L16.2816 5.53751" stroke="#373737" stroke-width="1.20505" stroke-linecap="round" stroke-linejoin="round"/>
<path d="M20.2904 1L20.0034 5.55215" stroke="#373737" stroke-width="1.20505" stroke-linecap="round" stroke-linejoin="round"/>
</svg>
