<svg width="21" height="20" viewBox="0 0 21 20" fill="none" xmlns="http://www.w3.org/2000/svg">
<path d="M19.1006 13.8085C19.0229 13.7192 18.9465 13.6299 18.8716 13.5438C17.8412 12.3558 17.2178 11.6388 17.2178 8.27589C17.2178 6.53482 16.7808 5.10625 15.9195 4.03482C15.2844 3.2433 14.4259 2.64286 13.2944 2.19911C13.2798 2.19139 13.2668 2.18126 13.256 2.1692C12.849 0.870089 11.7352 0 10.4791 0C9.22299 0 8.10971 0.870089 7.70271 2.16786C7.69185 2.17948 7.67903 2.18928 7.66477 2.19688C5.02419 3.23304 3.7409 5.22098 3.7409 8.27455C3.7409 11.6388 3.11845 12.3558 2.08714 13.5424C2.0122 13.6286 1.93586 13.7161 1.85811 13.8071C1.65728 14.038 1.53004 14.3189 1.49144 14.6165C1.45285 14.9141 1.50451 15.2161 1.64033 15.4866C1.9293 16.067 2.54519 16.4272 3.24819 16.4272H17.7152C18.4149 16.4272 19.0266 16.0674 19.3165 15.4897C19.4529 15.2191 19.5051 14.917 19.4668 14.619C19.4285 14.321 19.3014 14.0397 19.1006 13.8085ZM10.4791 20C11.1559 19.9995 11.8199 19.8244 12.4008 19.4932C12.9816 19.1621 13.4576 18.6873 13.7782 18.1192C13.7933 18.092 13.8008 18.0615 13.7999 18.0307C13.799 17.9999 13.7897 17.9699 13.773 17.9435C13.7563 17.9171 13.7328 17.8953 13.7046 17.8802C13.6765 17.865 13.6447 17.8571 13.6124 17.8571H7.34676C7.31441 17.857 7.28258 17.8649 7.25437 17.88C7.22617 17.8951 7.20254 17.9169 7.1858 17.9433C7.16906 17.9697 7.15977 17.9998 7.15884 18.0306C7.15791 18.0614 7.16537 18.0919 7.1805 18.1192C7.5011 18.6872 7.977 19.162 8.55774 19.4931C9.13848 19.8242 9.80241 19.9994 10.4791 20Z" fill="#6B6B6B"/>
</svg>
