<svg width="21" height="20" viewBox="0 0 21 20" fill="none" xmlns="http://www.w3.org/2000/svg">
<path d="M10.479 0C4.96506 0 0.479004 4.48606 0.479004 10C0.479004 15.5139 4.96506 20 10.479 20C15.9929 20 20.479 15.5139 20.479 10C20.479 4.48606 15.9929 0 10.479 0ZM10.5752 4.61538C11.2598 4.61538 11.929 4.8184 12.4983 5.19876C13.0675 5.57912 13.5112 6.11974 13.7732 6.75225C14.0352 7.38476 14.1037 8.08076 13.9702 8.75224C13.8366 9.42371 13.5069 10.0405 13.0228 10.5246C12.5387 11.0087 11.9219 11.3384 11.2505 11.4719C10.579 11.6055 9.883 11.537 9.25048 11.275C8.61797 11.013 8.07735 10.5693 7.69699 10.0001C7.31664 9.4308 7.11362 8.76155 7.11362 8.07692C7.11362 7.15887 7.47832 6.27841 8.12748 5.62925C8.77665 4.98008 9.6571 4.61538 10.5752 4.61538ZM10.479 18.4615C9.31192 18.462 8.15741 18.2204 7.08843 17.7521C6.01945 17.2837 5.05923 16.5987 4.26843 15.7404C4.69343 13.5394 8.51073 13.0769 10.479 13.0769C12.4473 13.0769 16.2646 13.5394 16.6896 15.7399C15.8989 16.5984 14.9387 17.2835 13.8697 17.752C12.8007 18.2204 11.6461 18.462 10.479 18.4615Z" fill="#6B6B6B"/>
</svg>
