<svg width="16" height="16" viewBox="0 0 16 16" fill="none" xmlns="http://www.w3.org/2000/svg">
<mask id="path-1-inside-1_2706_25670" fill="white">
<path d="M14.0586 0.812561C14.4243 0.842504 14.9474 0.96112 15.3105 1.32428C16.1403 2.15427 15.8083 3.14378 15.7754 3.34869C15.7536 3.48359 15.6904 3.60852 15.5938 3.70514L6.67383 12.6251C6.56576 12.7331 6.42273 12.7993 6.27051 12.8126L4.30469 12.9844C4.11298 13.0011 3.92292 12.9313 3.78711 12.795C3.65162 12.6587 3.5832 12.4688 3.60059 12.2774L3.76953 10.4268L3.78906 10.3155C3.81855 10.2066 3.87637 10.1062 3.95703 10.0255L12.877 1.10553C12.9923 0.990303 13.1242 0.931168 13.207 0.900452C13.3 0.866021 13.3962 0.844309 13.4844 0.830139C13.6612 0.801769 13.8608 0.796416 14.0586 0.812561ZM13.709 2.11139L5.04199 10.7784L4.96484 11.6212L5.9209 11.5381L14.5322 2.9278C14.5378 2.89927 14.5432 2.8722 14.5479 2.84479C14.5626 2.75743 14.5698 2.68379 14.5674 2.61725C14.5633 2.50715 14.5353 2.38701 14.3916 2.24323C14.3789 2.23053 14.3376 2.19921 14.25 2.16803C14.1649 2.13781 14.0605 2.11633 13.9521 2.10748C13.8539 2.09948 13.7685 2.10365 13.709 2.11139Z"/>
</mask>
<path d="M14.0586 0.812561C14.4243 0.842504 14.9474 0.96112 15.3105 1.32428C16.1403 2.15427 15.8083 3.14378 15.7754 3.34869C15.7536 3.48359 15.6904 3.60852 15.5938 3.70514L6.67383 12.6251C6.56576 12.7331 6.42273 12.7993 6.27051 12.8126L4.30469 12.9844C4.11298 13.0011 3.92292 12.9313 3.78711 12.795C3.65162 12.6587 3.5832 12.4688 3.60059 12.2774L3.76953 10.4268L3.78906 10.3155C3.81855 10.2066 3.87637 10.1062 3.95703 10.0255L12.877 1.10553C12.9923 0.990303 13.1242 0.931168 13.207 0.900452C13.3 0.866021 13.3962 0.844309 13.4844 0.830139C13.6612 0.801769 13.8608 0.796416 14.0586 0.812561ZM13.709 2.11139L5.04199 10.7784L4.96484 11.6212L5.9209 11.5381L14.5322 2.9278C14.5378 2.89927 14.5432 2.8722 14.5479 2.84479C14.5626 2.75743 14.5698 2.68379 14.5674 2.61725C14.5633 2.50715 14.5353 2.38701 14.3916 2.24323C14.3789 2.23053 14.3376 2.19921 14.25 2.16803C14.1649 2.13781 14.0605 2.11633 13.9521 2.10748C13.8539 2.09948 13.7685 2.10365 13.709 2.11139Z" fill="black"/>
<path d="M14.0586 0.812561L14.1647 -0.483103L14.1644 -0.483129L14.0586 0.812561ZM15.3105 1.32428L16.2299 0.405157L16.2298 0.40505L15.3105 1.32428ZM15.7754 3.34869L17.0588 3.55567L17.059 3.55478L15.7754 3.34869ZM15.5938 3.70514L14.6745 2.7859V2.7859L15.5938 3.70514ZM6.67383 12.6251L7.59283 13.5445L7.59307 13.5443L6.67383 12.6251ZM6.27051 12.8126L6.15742 11.5175L6.15728 11.5175L6.27051 12.8126ZM4.30469 12.9844L4.41724 14.2796L4.41792 14.2795L4.30469 12.9844ZM3.78711 12.795L2.86512 13.7115L2.86616 13.7125L3.78711 12.795ZM3.60059 12.2774L2.30597 12.1592L2.30591 12.1598L3.60059 12.2774ZM3.76953 10.4268L2.48909 10.2022L2.4798 10.2551L2.47492 10.3086L3.76953 10.4268ZM3.78906 10.3155L2.53426 9.97567L2.51882 10.0327L2.50862 10.0909L3.78906 10.3155ZM3.95703 10.0255L3.03779 9.10621L3.03756 9.10645L3.95703 10.0255ZM12.877 1.10553L11.9583 0.185703L11.9577 0.186291L12.877 1.10553ZM13.207 0.900452L12.7554 -0.31857L12.755 -0.318442L13.207 0.900452ZM13.4844 0.830139L13.2785 -0.453448L13.2781 -0.453391L13.4844 0.830139ZM13.709 2.11139L13.5415 0.822222L13.1027 0.879231L12.7897 1.19215L13.709 2.11139ZM5.04199 10.7784L4.12275 9.85914L3.79027 10.1916L3.74741 10.6599L5.04199 10.7784ZM4.96484 11.6212L3.67026 11.5026L3.52854 13.0507L5.07729 12.9163L4.96484 11.6212ZM5.9209 11.5381L6.03335 12.8333L6.50518 12.7923L6.84009 12.4574L5.9209 11.5381ZM14.5322 2.9278L15.4514 3.84709L15.7322 3.56638L15.8082 3.17673L14.5322 2.9278ZM14.5479 2.84479L15.8296 3.06165L15.8297 3.0615L14.5479 2.84479ZM14.5674 2.61725L15.8665 2.57034L15.8665 2.56952L14.5674 2.61725ZM14.3916 2.24323L15.3111 1.32426L15.3098 1.32299L14.3916 2.24323ZM14.25 2.16803L14.6859 0.943278L14.6853 0.943068L14.25 2.16803ZM13.9521 2.10748L14.058 0.811799L14.0577 0.811773L13.9521 2.10748ZM14.0586 0.812561L13.9525 2.10823C14.0529 2.11644 14.1596 2.13624 14.2505 2.16852C14.3414 2.2008 14.3802 2.23239 14.3913 2.24351L15.3105 1.32428L16.2298 0.40505C15.5435 -0.281226 14.6465 -0.443657 14.1647 -0.483103L14.0586 0.812561ZM15.3105 1.32428L14.3912 2.2434C14.5333 2.38554 14.5625 2.50954 14.5677 2.62812C14.5708 2.69837 14.5642 2.77125 14.5516 2.84556C14.5453 2.88254 14.538 2.9178 14.5292 2.95801C14.5265 2.97012 14.5037 3.06859 14.4918 3.14261L15.7754 3.34869L17.059 3.55478C17.0542 3.58413 17.6234 1.79898 16.2299 0.405157L15.3105 1.32428ZM15.7754 3.34869L14.492 3.14171C14.5131 3.01045 14.5753 2.88511 14.6745 2.7859L15.5938 3.70514L16.513 4.62438C16.8054 4.33193 16.9941 3.95673 17.0588 3.55567L15.7754 3.34869ZM15.5938 3.70514L14.6745 2.7859L5.75459 11.7058L6.67383 12.6251L7.59307 13.5443L16.513 4.62438L15.5938 3.70514ZM6.67383 12.6251L5.75482 11.7056C5.86473 11.5957 6.0078 11.5306 6.15742 11.5175L6.27051 12.8126L6.3836 14.1076C6.83766 14.068 7.26679 13.8704 7.59283 13.5445L6.67383 12.6251ZM6.27051 12.8126L6.15728 11.5175L4.19146 11.6894L4.30469 12.9844L4.41792 14.2795L6.38374 14.1076L6.27051 12.8126ZM4.30469 12.9844L4.19214 11.6893C4.38551 11.6725 4.57344 11.7423 4.70806 11.8775L3.78711 12.795L2.86616 13.7125C3.27241 14.1203 3.84046 14.3297 4.41724 14.2796L4.30469 12.9844ZM3.78711 12.795L4.7091 11.8785C4.84464 12.0149 4.91264 12.2036 4.89526 12.395L3.60059 12.2774L2.30591 12.1598C2.25376 12.734 2.45859 13.3025 2.86512 13.7115L3.78711 12.795ZM3.60059 12.2774L4.8952 12.3956L5.06415 10.545L3.76953 10.4268L2.47492 10.3086L2.30597 12.1592L3.60059 12.2774ZM3.76953 10.4268L5.04998 10.6515L5.06951 10.5401L3.78906 10.3155L2.50862 10.0909L2.48909 10.2022L3.76953 10.4268ZM3.78906 10.3155L5.04386 10.6553C5.0143 10.7645 4.95696 10.864 4.8765 10.9445L3.95703 10.0255L3.03756 9.10645C2.79578 9.34835 2.6228 9.64873 2.53426 9.97567L3.78906 10.3155ZM3.95703 10.0255L4.87627 10.9447L13.7962 2.02477L12.877 1.10553L11.9577 0.186291L3.03779 9.10621L3.95703 10.0255ZM12.877 1.10553L13.7956 2.02536C13.757 2.0639 13.7218 2.08709 13.6996 2.09976C13.6775 2.11243 13.6617 2.11835 13.659 2.11935L13.207 0.900452L12.755 -0.318442C12.5904 -0.257399 12.2618 -0.117453 11.9583 0.185703L12.877 1.10553ZM13.207 0.900452L13.6587 2.11947C13.6521 2.1219 13.6516 2.12164 13.6584 2.11997C13.665 2.11833 13.6757 2.11608 13.6907 2.11367L13.4844 0.830139L13.2781 -0.453391C13.1351 -0.430413 12.9512 -0.391123 12.7554 -0.31857L13.207 0.900452ZM13.4844 0.830139L13.6903 2.11373C13.7489 2.10433 13.8425 2.09924 13.9528 2.10825L14.0586 0.812561L14.1644 -0.483129C13.8792 -0.50641 13.5736 -0.500791 13.2785 -0.453448L13.4844 0.830139ZM13.709 2.11139L12.7897 1.19215L4.12275 9.85914L5.04199 10.7784L5.96123 11.6976L14.6282 3.03063L13.709 2.11139ZM5.04199 10.7784L3.74741 10.6599L3.67026 11.5026L4.96484 11.6212L6.25943 11.7397L6.33658 10.8969L5.04199 10.7784ZM4.96484 11.6212L5.07729 12.9163L6.03335 12.8333L5.9209 11.5381L5.80845 10.243L4.8524 10.326L4.96484 11.6212ZM5.9209 11.5381L6.84009 12.4574L15.4514 3.84709L14.5322 2.9278L13.613 2.0085L5.00171 10.6189L5.9209 11.5381ZM14.5322 2.9278L15.8082 3.17673C15.8119 3.15771 15.8215 3.10953 15.8296 3.06165L14.5479 2.84479L13.2661 2.62792C13.2649 2.63487 13.2637 2.64083 13.2563 2.67887L14.5322 2.9278ZM14.5479 2.84479L15.8297 3.0615C15.8518 2.93043 15.8734 2.76025 15.8665 2.57034L14.5674 2.61725L13.2682 2.66416C13.2671 2.6338 13.2686 2.61393 13.2691 2.60843C13.2696 2.60342 13.2693 2.60854 13.266 2.62807L14.5479 2.84479ZM14.5674 2.61725L15.8665 2.56952C15.8608 2.41447 15.8354 2.19388 15.7337 1.94719C15.6328 1.7026 15.4837 1.497 15.3111 1.32426L14.3916 2.24323L13.4721 3.16219C13.4432 3.13324 13.38 3.0596 13.3301 2.93855C13.2793 2.81541 13.2699 2.70993 13.2683 2.66497L14.5674 2.61725ZM14.3916 2.24323L15.3098 1.32299C15.1195 1.1331 14.8904 1.01605 14.6859 0.943278L14.25 2.16803L13.8141 3.39278C13.7897 3.38408 13.7478 3.36691 13.6946 3.3359C13.668 3.32043 13.6368 3.30042 13.6023 3.27489C13.5706 3.25136 13.5247 3.21474 13.4734 3.16346L14.3916 2.24323ZM14.25 2.16803L14.6853 0.943068C14.4776 0.86926 14.26 0.828301 14.058 0.811799L13.9521 2.10748L13.8463 3.40317C13.8501 3.40348 13.8519 3.4039 13.8501 3.40354C13.849 3.4033 13.8457 3.40261 13.8404 3.40116C13.8352 3.39973 13.8265 3.39718 13.8147 3.39299L14.25 2.16803ZM13.9521 2.10748L14.0577 0.811773C13.8674 0.796279 13.6905 0.802864 13.5415 0.822222L13.709 2.11139L13.8765 3.40056C13.8671 3.40178 13.8603 3.40239 13.8562 3.4027C13.852 3.40301 13.8493 3.40311 13.848 3.40314C13.8457 3.4032 13.8456 3.40311 13.8466 3.40319L13.9521 2.10748Z" fill="#A0A0A0" mask="url(#path-1-inside-1_2706_25670)"/>
<path d="M9.33495 1.90047H0.713867V15.196H13.3156V11.241V8.41848" stroke="#A0A0A0" stroke-width="1.3" stroke-linecap="round" stroke-linejoin="round"/>
</svg>
