<svg width="73" height="106" viewBox="0 0 73 106" fill="none" xmlns="http://www.w3.org/2000/svg">
<g clip-path="url(#clip0_1568_26231)">
<path opacity="0.8" d="M73 37.0437L36.5 73.5318H73V37.0437Z" fill="#6DA973"/>
<path d="M67.3299 104.374L36.5 73.5437H73V102.025C73 104.979 69.4295 106.461 67.3299 104.374Z" fill="#6DA973"/>
<path opacity="0.4" d="M73 37.0437L36.5 0.543701H69.6667C71.5054 0.543701 73 2.03834 73 3.87698V37.0437Z" fill="#6DA973"/>
<path opacity="0.6" d="M36.5 0.543701V37.0437V73.5318L73 37.0437L36.5 0.543701Z" fill="#6DA973"/>
<path opacity="0.8" d="M0 37.0437L36.5 73.5318H0V37.0437Z" fill="#6DA973"/>
<path d="M5.64641 104.385L36.5 73.5319H0V102.049C0 104.99 3.55866 106.473 5.64641 104.385Z" fill="#6DA973"/>
<path opacity="0.4" d="M0 37.0437L36.5 0.543701H3.38073C1.51836 0.543701 0 2.06206 0 3.92443V37.0318V37.0437Z" fill="#6DA973"/>
<path opacity="0.6" d="M36.5 0.543701V37.0437V73.5318L0 37.0437L36.5 0.543701Z" fill="#6DA973"/>
</g>
<defs>
<clipPath id="clip0_1568_26231">
<rect width="73" height="104.826" fill="white" transform="translate(0 0.543701)"/>
</clipPath>
</defs>
</svg>
