<svg width="82" height="82" viewBox="0 0 82 82" fill="none" xmlns="http://www.w3.org/2000/svg">
<path d="M60.2175 39.824C61.4734 36.8701 65.2106 36.0869 67.5603 34.0253C72.1002 30.1035 64.5616 29.3511 61.7028 29.1329C57.4929 28.7189 53.16 28.4224 53.5376 23.6698C53.7558 20.5285 55.0341 15.541 49.9263 18.3131C46.8186 20.0558 44.0045 23.544 40.1275 23.3342C35.6211 23.2335 31.2993 16.6375 27.5006 16.7746C24.8209 17.4151 27.6685 23.5551 26.1216 25.7258C23.9397 29.8434 12.9633 27.144 11.201 30.8476C10.7786 33.6924 17.3997 35.6645 18.9326 37.6953C22.0544 41.1024 17.3885 44.4479 15.3801 47.0717C14.4542 48.2018 13.3325 50.3585 15.3549 50.9767C18.3256 52.1796 26.116 48.406 26.6419 53.1026C26.7454 54.5796 26.0209 56.3643 25.8167 57.8412C25.1845 61.8441 29.1175 60.3951 31.6937 58.9489C34.4798 57.4076 37.4813 55.5167 40.7904 56.1237C43.68 56.5657 46.5808 58.7335 49.4955 60.1853C50.9445 60.8958 54.1054 62.3112 54.4019 59.7909C54.6761 57.1811 51.5879 52.4397 55.4621 51.4662C57.8454 50.6606 64.9672 53.4551 65.8735 50.5571C66.0581 48.1515 62.6483 45.7347 61.3559 43.8241C60.514 42.7024 59.7391 41.273 60.2035 39.8604L60.2175 39.8212V39.824Z" fill="#94A8D2"/>
<path d="M38.1172 21.6328C40.2683 26.777 39.8347 26.6707 43.5383 22.3937" stroke="#3C7A46" stroke-width="1.67836" stroke-linecap="round" stroke-linejoin="round"/>
<path d="M35.9363 26.3072C40.6581 25.5043 40.9462 25.0176 38.0035 29.0904" stroke="#3C7A46" stroke-width="1.67836" stroke-linecap="round" stroke-linejoin="round"/>
<path d="M40.0979 25.6416L44.2043 26.4584" stroke="#3C7A46" stroke-width="1.67836" stroke-linecap="round" stroke-linejoin="round"/>
<path d="M29.1672 34.2266L35.6429 36.5958L29.1672 34.2266Z" fill="#EEF2FA"/>
<path d="M29.1672 34.2266L35.6429 36.5958" stroke="#373737" stroke-width="1.39863" stroke-linecap="round" stroke-linejoin="round"/>
<path d="M51.0284 34.2266L44.5527 36.5958L51.0284 34.2266Z" fill="#EEF2FA"/>
<path d="M51.0284 34.2266L44.5527 36.5958" stroke="#373737" stroke-width="1.39863" stroke-linecap="round" stroke-linejoin="round"/>
<path d="M41.8086 38.9337C41.694 41.3002 38.2058 41.1072 38.3568 38.7407C38.6058 36.5924 41.7303 36.7211 41.8086 38.8778V38.9337Z" fill="#EEF2FA"/>
<path d="M27.5909 40.0982C27.5349 41.094 26.0076 41.0689 25.988 40.073C26.0076 39.0744 27.5349 39.0548 27.5909 40.0479V40.101V40.0982Z" fill="#6274A6"/>
<path d="M32.2515 40.0982C32.1956 41.094 30.6683 41.0689 30.6487 40.073C30.6683 39.0744 32.1956 39.0548 32.2515 40.0479V40.101V40.0982Z" fill="#6274A6"/>
<path d="M29.9185 42.7642C29.8654 43.7573 28.3353 43.7377 28.3157 42.7391C28.3325 41.7432 29.8626 41.7181 29.9185 42.7139V42.767V42.7642Z" fill="#6274A6"/>
<path d="M49.5108 40.0982C49.4576 41.0913 47.9275 41.0717 47.908 40.0731C47.9247 39.0772 49.4548 39.0521 49.5108 40.0479V40.101V40.0982Z" fill="#6274A6"/>
<path d="M54.1661 40.0982C54.1101 41.094 52.5828 41.0689 52.5632 40.073C52.5828 39.0744 54.1101 39.0548 54.1661 40.0479V40.101V40.0982Z" fill="#6274A6"/>
<path d="M51.8411 42.7642C51.7852 43.76 50.2579 43.7349 50.2383 42.739C50.2579 41.7404 51.7852 41.7208 51.8411 42.7139V42.767V42.7642Z" fill="#6274A6"/>
</svg>
