<svg width="43" height="33" viewBox="0 0 43 33" fill="none" xmlns="http://www.w3.org/2000/svg">
<path d="M36.0615 17.1404C36.9805 14.979 39.715 14.4059 41.4343 12.8975C44.7562 10.0279 39.2402 9.4773 37.1483 9.31765C34.0679 9.01473 30.8975 8.79777 31.1738 5.32029C31.3334 3.02176 32.2688 -0.627651 28.5314 1.40071C26.2574 2.67585 24.1984 5.22819 21.3615 5.07468C18.0642 5.00099 14.9019 0.174687 12.1224 0.274979C10.1616 0.743692 12.2452 5.23637 11.1133 6.82467C9.51682 9.83753 1.48526 7.86239 0.19579 10.5723C-0.113274 12.6539 4.73145 14.0969 5.85309 15.5828C8.13729 18.0758 4.72327 20.5238 3.25368 22.4436C2.57619 23.2705 1.75544 24.8486 3.23526 25.3009C5.40894 26.1811 11.1092 23.42 11.494 26.8565C11.5697 27.9372 11.0396 29.243 10.8902 30.3237C10.4276 33.2527 13.3054 32.1925 15.1905 31.1343C17.2291 30.0065 19.4253 28.6229 21.8466 29.067C23.9609 29.3904 26.0835 30.9767 28.2162 32.0389C29.2764 32.5588 31.5893 33.5945 31.8063 31.7504C32.0068 29.8407 29.7472 26.3714 32.582 25.6591C34.3258 25.0697 39.5369 27.1144 40.2001 24.9939C40.3352 23.2337 37.8402 21.4653 36.8945 20.0673C36.2785 19.2466 35.7115 18.2007 36.0513 17.167L36.0615 17.1384V17.1404Z" fill="#94A8D2"/>
<path d="M19.8906 3.83008C21.4646 7.5941 21.1473 7.51633 23.8573 4.3868" stroke="#3C7A46" stroke-width="1.22807" stroke-linecap="round" stroke-linejoin="round"/>
<path d="M18.2954 7.25138C21.7504 6.66396 21.9612 6.30782 19.808 9.28793" stroke="#3C7A46" stroke-width="1.22807" stroke-linecap="round" stroke-linejoin="round"/>
<path d="M21.3408 6.76367L24.3455 7.36133" stroke="#3C7A46" stroke-width="1.22807" stroke-linecap="round" stroke-linejoin="round"/>
<path d="M13.3413 13.0449L18.0796 14.7785L13.3413 13.0449Z" fill="#EEF2FA"/>
<path d="M13.3413 13.0449L18.0796 14.7785" stroke="#373737" stroke-width="1.02339" stroke-linecap="round" stroke-linejoin="round"/>
<path d="M29.3379 13.0449L24.5996 14.7785L29.3379 13.0449Z" fill="#EEF2FA"/>
<path d="M29.3379 13.0449L24.5996 14.7785" stroke="#373737" stroke-width="1.02339" stroke-linecap="round" stroke-linejoin="round"/>
<path d="M22.5917 16.4903C22.5078 18.2218 19.9555 18.0806 20.066 16.349C20.2482 14.7771 22.5344 14.8712 22.5917 16.4493V16.4903Z" fill="#EEF2FA"/>
<path d="M12.1889 17.3398C12.148 18.0685 11.0304 18.05 11.0161 17.3214C11.0304 16.5907 12.148 16.5764 12.1889 17.303V17.3419V17.3398Z" fill="#6274A6"/>
<path d="M15.5981 17.3398C15.5572 18.0685 14.4396 18.05 14.4253 17.3214C14.4396 16.5907 15.5572 16.5764 15.5981 17.303V17.3419V17.3398Z" fill="#6274A6"/>
<path d="M13.8925 19.291C13.8536 20.0176 12.7341 20.0033 12.7197 19.2726C12.732 18.5439 13.8516 18.5255 13.8925 19.2542V19.2931V19.291Z" fill="#6274A6"/>
<path d="M28.2265 17.3398C28.1876 18.0664 27.068 18.0521 27.0537 17.3214C27.066 16.5928 28.1856 16.5743 28.2265 17.303V17.3419V17.3398Z" fill="#6274A6"/>
<path d="M31.6342 17.3398C31.5933 18.0685 30.4758 18.05 30.4614 17.3214C30.4758 16.5907 31.5933 16.5764 31.6342 17.303V17.3419V17.3398Z" fill="#6274A6"/>
<path d="M29.9326 19.291C29.8916 20.0196 28.7741 20.0012 28.7598 19.2726C28.7741 18.5419 29.8916 18.5275 29.9326 19.2541V19.293V19.291Z" fill="#6274A6"/>
</svg>
