<svg width="30" height="35" viewBox="0 0 30 35" fill="none" xmlns="http://www.w3.org/2000/svg">
<path d="M29.1315 16.5752C28.6317 8.97796 22.3141 2.9707 14.5919 2.9707C6.86975 2.9707 0.55216 8.97997 0.0523951 16.5752C0.0181371 16.7969 0 17.0246 0 17.2563V30.5001C0 32.9526 1.98898 34.9416 4.44146 34.9416C6.89394 34.9416 8.88292 32.9526 8.88292 30.5001V29.2305C8.88292 32.3843 11.4402 34.9395 14.5919 34.9395C17.7457 34.9395 20.3009 32.3823 20.3009 29.2305V30.5001C20.3009 32.9526 22.2899 34.9416 24.7424 34.9416C27.1949 34.9416 29.1839 32.9526 29.1839 30.5001V17.2563C29.1839 17.0246 29.1657 16.7969 29.1315 16.5752Z" fill="#D2DEF4"/>
<path d="M16.2886 13.9996L16.2946 14.2193L16.2503 14.4329L16.2019 14.6485L16.1072 14.848L15.9722 15.0213L15.8533 15.2067L15.686 15.3498L15.5168 15.4848L15.3293 15.5977L15.1319 15.6904L14.9223 15.7448L14.7107 15.8093L14.491 15.8153L14.2734 15.7932L14.0598 15.7468L13.8421 15.7125L13.6507 15.6017L13.4693 15.4788L13.2779 15.37L13.1227 15.2108L12.9978 15.0314L12.8869 14.842L12.8003 14.6405L12.7237 14.4349L12.6895 14.2193L12.6733 13.9996L12.7056 13.782L12.7177 13.5623L12.7922 13.3548L12.893 13.1593L13.0058 12.9739L13.1247 12.7885L13.288 12.6414L13.4653 12.5145L13.6487 12.3956L13.8462 12.3008L14.0537 12.2263L14.2754 12.2162L14.491 12.1719L14.7127 12.1819L14.9303 12.2223L15.1298 12.315L15.3334 12.3956L15.5127 12.5205L15.6921 12.6454L15.8533 12.7925L15.9923 12.9638L16.0871 13.1633L16.1777 13.3608L16.2483 13.5664L16.2926 13.782L16.2886 13.9996Z" fill="#9AC99E"/>
<path d="M9.89178 14.0011L9.85551 14.245L9.75475 14.4666L9.59757 14.6541L9.40008 14.7951L9.17639 14.8959L8.93054 14.914L8.6867 14.8979L8.46302 14.7951L8.2615 14.6581L8.10029 14.4707L8.00154 14.245L7.96729 14.0011L8.0096 13.7593L8.10835 13.5356L8.25949 13.3422L8.461 13.2031L8.6867 13.1064L8.93054 13.0762L9.17639 13.1064L9.40411 13.2011L9.6016 13.3442L9.75072 13.5376L9.85954 13.7573L9.89178 14.0011Z" fill="#373737"/>
<path d="M21.0074 14.0011L20.9712 14.245L20.8704 14.4666L20.7152 14.6541L20.5157 14.7951L20.2921 14.8959L20.0482 14.914L19.8024 14.8979L19.5807 14.7951L19.3772 14.6581L19.218 14.4707L19.1172 14.245L19.085 14.0011L19.1253 13.7593L19.224 13.5356L19.3751 13.3422L19.5767 13.2031L19.8024 13.1064L20.0482 13.0762L20.2921 13.1064L20.5198 13.2011L20.7173 13.3442L20.8664 13.5376L20.9752 13.7573L21.0074 14.0011Z" fill="#373737"/>
<path d="M12.5771 18.0469H16.406" stroke="#373737" stroke-width="0.821627" stroke-linecap="round" stroke-linejoin="round"/>
<path d="M12.6631 1.07031L13.1491 4.86893" stroke="#373737" stroke-width="0.821627" stroke-linecap="round" stroke-linejoin="round"/>
<path d="M16.5149 1.05859L16.2739 4.88139" stroke="#373737" stroke-width="0.821627" stroke-linecap="round" stroke-linejoin="round"/>
</svg>
