<svg width="82" height="82" viewBox="0 0 82 82" fill="none" xmlns="http://www.w3.org/2000/svg">
<path d="M60.313 37.0809C59.63 26.7156 50.9959 18.5195 40.4423 18.5195C29.8887 18.5195 21.2546 26.7183 20.5716 37.0809C20.5248 37.3834 20.5 37.6941 20.5 38.0103V56.0795C20.5 59.4256 23.2183 62.1393 26.57 62.1393C29.9217 62.1393 32.64 59.4256 32.64 56.0795V54.3474C32.64 58.6502 36.1349 62.1365 40.4423 62.1365C44.7524 62.1365 48.2446 58.6475 48.2446 54.3474V56.0795C48.2446 59.4256 50.9629 62.1393 54.3146 62.1393C57.6663 62.1393 60.3846 59.4256 60.3846 56.0795V38.0103C60.3846 37.6941 60.3598 37.3834 60.313 37.0809Z" fill="#D2DEF4"/>
<path d="M37.6848 39.0879H42.9176" stroke="#373737" stroke-width="1.65245" stroke-linecap="round" stroke-linejoin="round"/>
<path d="M37.8076 15.9268L38.4741 21.1094" stroke="#373737" stroke-width="1.65245" stroke-linecap="round" stroke-linejoin="round"/>
<path d="M43.071 15.9102L42.7405 21.1258" stroke="#373737" stroke-width="1.65245" stroke-linecap="round" stroke-linejoin="round"/>
<path d="M32.7081 34.8235C33.4032 34.8235 33.9667 34.261 33.9667 33.567C33.9667 32.8731 33.4032 32.3105 32.7081 32.3105C32.013 32.3105 31.4495 32.8731 31.4495 33.567C31.4495 34.261 32.013 34.8235 32.7081 34.8235Z" fill="#373737"/>
<path d="M40.3022 36.0418C41.6711 36.0418 42.7808 34.9339 42.7808 33.5673C42.7808 32.2006 41.6711 31.0928 40.3022 31.0928C38.9332 31.0928 37.8235 32.2006 37.8235 33.5673C37.8235 34.9339 38.9332 36.0418 40.3022 36.0418Z" fill="#9AC99E"/>
<path d="M47.8988 34.8235C48.5939 34.8235 49.1574 34.261 49.1574 33.567C49.1574 32.8731 48.5939 32.3105 47.8988 32.3105C47.2036 32.3105 46.6401 32.8731 46.6401 33.567C46.6401 34.261 47.2036 34.8235 47.8988 34.8235Z" fill="#373737"/>
</svg>
