<svg width="36" height="37" viewBox="0 0 36 37" fill="none" xmlns="http://www.w3.org/2000/svg">
<path d="M35.7508 19.1086C35.7508 14.6993 31.7426 11.1143 26.751 11.0055C25.6286 7.64016 22.0879 5.18164 17.8923 5.18164C13.6967 5.18164 10.1198 7.66636 9.01543 11.0579C4.01778 11.1607 -0.000488281 14.7477 -0.000488281 19.161C-0.000488281 21.5308 1.15824 23.6629 3.00415 25.146C2.48222 26.1637 2.188 27.2902 2.188 28.4771C2.188 32.9549 6.32113 36.5862 11.4216 36.5862C13.9405 36.5862 16.2237 35.6995 17.8903 34.2627C19.5568 35.6995 21.84 36.5862 24.359 36.5862C29.4594 36.5862 33.5926 32.9569 33.5926 28.4771C33.5926 27.268 33.2883 26.1214 32.7482 25.0896C34.5921 23.6064 35.7508 21.4764 35.7508 19.1065V19.1086Z" fill="#CCE5CD"/>
<path d="M21.706 7.8184C21.6979 7.7922 21.6899 7.76399 21.6798 7.73779L18.9835 0.835796C18.5482 -0.278599 17.202 -0.278599 16.7688 0.835796L14.0725 7.73779C14.0624 7.76399 14.0543 7.7922 14.0463 7.8184C13.8871 8.10455 13.7964 8.41086 13.7964 8.73329C13.7964 10.2084 15.6242 11.4054 17.8771 11.4054C20.1301 11.4054 21.9579 10.2084 21.9579 8.73329C21.9579 8.41086 21.8672 8.10455 21.708 7.8184H21.706Z" fill="#94A8D2"/>
<path d="M12.1779 22.3574C13.942 22.3574 15.372 21.0654 15.372 19.4717C15.372 17.8779 13.942 16.5859 12.1779 16.5859C10.4139 16.5859 8.98389 17.8779 8.98389 19.4717C8.98389 21.0654 10.4139 22.3574 12.1779 22.3574Z" fill="white"/>
<path d="M18.3364 19.9777C18.9841 19.9777 19.5092 19.5437 19.5092 19.0084C19.5092 18.473 18.9841 18.0391 18.3364 18.0391C17.6887 18.0391 17.1636 18.473 17.1636 19.0084C17.1636 19.5437 17.6887 19.9777 18.3364 19.9777Z" fill="#6DA973"/>
<path d="M12.1799 16.5859C11.5733 16.5859 11.0091 16.7391 10.5274 17.0051C10.2252 17.1703 10.1163 17.5512 10.2897 17.8474L12.6212 21.8838C12.7703 22.1398 13.0807 22.2526 13.3588 22.1539C14.5397 21.7307 15.376 20.6888 15.376 19.4717C15.376 17.8777 13.9452 16.5859 12.1819 16.5859H12.1799Z" fill="#373737"/>
<path d="M24.4128 22.3574C26.1768 22.3574 27.6069 21.0654 27.6069 19.4717C27.6069 17.8779 26.1768 16.5859 24.4128 16.5859C22.6488 16.5859 21.2188 17.8779 21.2188 19.4717C21.2188 21.0654 22.6488 22.3574 24.4128 22.3574Z" fill="white"/>
<path d="M17.0679 21.1621V22.0206C17.0679 22.867 17.6341 23.5521 18.3334 23.5521C19.0327 23.5521 19.5989 22.867 19.5989 22.0206V21.1621" stroke="#373737" stroke-width="0.6878" stroke-linecap="round" stroke-linejoin="round"/>
<path d="M24.4149 16.586C23.8124 16.586 23.2501 16.7371 22.7705 16.9991C22.4642 17.1664 22.3534 17.5533 22.5287 17.8556L24.8502 21.8759C25.0013 22.1358 25.3177 22.2527 25.5998 22.1499C26.7767 21.7247 27.609 20.6849 27.609 19.4697C27.609 17.8757 26.1782 16.584 24.4149 16.584V16.586Z" fill="#373737"/>
</svg>
