<svg width="82" height="82" viewBox="0 0 82 82" fill="none" xmlns="http://www.w3.org/2000/svg">
<path d="M64.8038 38.5022C64.8038 32.4763 59.3259 27.5768 52.504 27.428C50.97 22.8287 46.1311 19.4688 40.3971 19.4688C34.6631 19.4688 29.7746 22.8645 28.2654 27.4996C21.4352 27.6401 15.9436 32.5424 15.9436 38.5738C15.9436 41.8126 17.5272 44.7264 20.0499 46.7534C19.3366 48.1442 18.9345 49.6838 18.9345 51.3059C18.9345 57.4255 24.5832 62.3883 31.5537 62.3883C34.9963 62.3883 38.1167 61.1766 40.3943 59.2129C42.672 61.1766 45.7923 62.3883 49.2349 62.3883C56.2055 62.3883 61.8541 57.4282 61.8541 51.3059C61.8541 49.6535 61.4383 48.0864 60.7002 46.6763C63.2202 44.6493 64.8038 41.7382 64.8038 38.4994V38.5022Z" fill="#CCE5CD"/>
<path d="M45.6064 23.0709C45.5954 23.0351 45.5844 22.9965 45.5706 22.9607L41.8856 13.528C41.2908 12.005 39.451 12.005 38.8589 13.528L35.1739 22.9607C35.1602 22.9965 35.1492 23.0351 35.1381 23.0709C34.9206 23.462 34.7966 23.8806 34.7966 24.3212C34.7966 26.3372 37.2946 27.9732 40.3736 27.9732C43.4527 27.9732 45.9507 26.3372 45.9507 24.3212C45.9507 23.8806 45.8267 23.462 45.6092 23.0709H45.6064Z" fill="#94A8D2"/>
<path d="M32.5874 42.9385C34.9982 42.9385 36.9526 41.1727 36.9526 38.9946C36.9526 36.8165 34.9982 35.0508 32.5874 35.0508C30.1765 35.0508 28.2222 36.8165 28.2222 38.9946C28.2222 41.1727 30.1765 42.9385 32.5874 42.9385Z" fill="white"/>
<path d="M40.9986 39.6895C41.8839 39.6895 42.6015 39.0964 42.6015 38.3648C42.6015 37.6331 41.8839 37.04 40.9986 37.04C40.1134 37.04 39.3958 37.6331 39.3958 38.3648C39.3958 39.0964 40.1134 39.6895 40.9986 39.6895Z" fill="#6DA973"/>
<path d="M32.5866 35.0508C31.7576 35.0508 30.9865 35.2601 30.3283 35.6236C29.9152 35.8495 29.7664 36.37 30.0033 36.7748L33.1898 42.2913C33.3936 42.641 33.8177 42.7953 34.1978 42.6603C35.8116 42.0819 36.9546 40.6581 36.9546 38.9946C36.9546 36.8161 34.9992 35.0508 32.5894 35.0508H32.5866Z" fill="#373737"/>
<path d="M49.3078 42.9385C51.7187 42.9385 53.6731 41.1727 53.6731 38.9946C53.6731 36.8165 51.7187 35.0508 49.3078 35.0508C46.897 35.0508 44.9426 36.8165 44.9426 38.9946C44.9426 41.1727 46.897 42.9385 49.3078 42.9385Z" fill="white"/>
<path d="M39.2703 41.3057V42.4789C39.2703 43.6356 40.0442 44.572 40.9998 44.572C41.9555 44.572 42.7294 43.6356 42.7294 42.4789V41.3057" stroke="#373737" stroke-width="1.37704" stroke-linecap="round" stroke-linejoin="round"/>
<path d="M49.3053 35.0506C48.4818 35.0506 47.7134 35.2572 47.058 35.6152C46.6393 35.8438 46.4879 36.3726 46.7275 36.7857L49.9002 42.2801C50.1067 42.6353 50.5391 42.7951 50.9247 42.6546C52.5331 42.0735 53.6705 40.6524 53.6705 38.9917C53.6705 36.8132 51.7151 35.0479 49.3053 35.0479V35.0506Z" fill="#373737"/>
</svg>
