<svg width="36" height="26" viewBox="0 0 36 26" fill="none" xmlns="http://www.w3.org/2000/svg">
<path d="M32.3912 25.655H3.39449C1.52168 25.655 0.0725589 24.2776 0.295658 22.7138L3.07314 3.3513C3.31671 1.65043 5.0319 0.369141 7.06845 0.369141H28.7172C30.7538 0.369141 32.469 1.64838 32.7126 3.3513L35.49 22.7138C35.7152 24.2776 34.264 25.655 32.3912 25.655Z" fill="#9AC99E"/>
<path d="M2.3072 10.4375C2.76159 11.2603 3.92211 11.3156 4.45222 10.5399L7.27268 6.41356C7.80894 5.6276 8.98994 5.69719 9.43204 6.54251L10.261 7.79923C10.7051 8.64865 11.8964 8.7121 12.4285 7.9159L14.2031 5.54368C14.6534 4.8662 15.6195 4.78842 16.1741 5.38199C16.8311 6.08608 17.4411 6.8311 18.0961 7.53519C18.7162 8.20039 19.2075 8.97203 20.1326 9.18899C20.63 9.30566 21.3156 9.05187 21.6943 8.76122C22.8425 7.88111 23.9314 6.92116 25.0306 5.97964C25.3171 5.70128 25.5873 5.38608 26.0007 5.31239C26.4776 5.22847 26.9688 5.42906 27.2493 5.82409L29.3472 8.78373C29.863 9.51034 30.9498 9.48782 31.4329 8.74075L32.7203 6.75333C32.9864 6.34398 33.0928 5.85275 33.0212 5.36971L32.7326 3.40889C32.4767 1.66094 30.9764 0.363281 29.208 0.363281H6.80398C4.80223 0.363281 3.11363 1.85743 2.87007 3.84485L2.15983 9.66999C2.12709 9.93198 2.1803 10.2001 2.3072 10.4314V10.4375Z" fill="#E0E9F6"/>
<path d="M18.3689 16.3638C19.0675 16.3638 19.6338 15.7975 19.6338 15.0989C19.6338 14.4003 19.0675 13.834 18.3689 13.834C17.6703 13.834 17.104 14.4003 17.104 15.0989C17.104 15.7975 17.6703 16.3638 18.3689 16.3638Z" fill="#CCE5CD"/>
<path d="M13.0684 17.1817C15.1789 17.1817 16.8897 15.4709 16.8897 13.3604C16.8897 11.2499 15.1789 9.53906 13.0684 9.53906C10.9579 9.53906 9.24707 11.2499 9.24707 13.3604C9.24707 15.4709 10.9579 17.1817 13.0684 17.1817Z" fill="#EEF2FA"/>
<path d="M23.7789 17.1817C25.8893 17.1817 27.6002 15.4709 27.6002 13.3604C27.6002 11.2499 25.8893 9.53906 23.7789 9.53906C21.6684 9.53906 19.9575 11.2499 19.9575 13.3604C19.9575 15.4709 21.6684 17.1817 23.7789 17.1817Z" fill="#EEF2FA"/>
<path d="M22.7664 14.8951C23.7838 14.8951 24.6085 14.0704 24.6085 13.053C24.6085 12.0357 23.7838 11.2109 22.7664 11.2109C21.7491 11.2109 20.9243 12.0357 20.9243 13.053C20.9243 14.0704 21.7491 14.8951 22.7664 14.8951Z" fill="#6274A6"/>
<path d="M14.0815 15.0117C15.1306 15.0117 15.981 14.1613 15.981 13.1123C15.981 12.0633 15.1306 11.2129 14.0815 11.2129C13.0325 11.2129 12.1821 12.0633 12.1821 13.1123C12.1821 14.1613 13.0325 15.0117 14.0815 15.0117Z" fill="#6274A6"/>
</svg>
