<svg width="82" height="82" viewBox="0 0 82 82" fill="none" xmlns="http://www.w3.org/2000/svg">
<path d="M59.8914 58.0122H21.0401C18.5308 58.0122 16.5892 56.1587 16.8881 54.0546L20.6095 28.001C20.9358 25.7123 23.234 23.9883 25.9626 23.9883H54.9688C57.6975 23.9883 59.9956 25.7096 60.322 28.001L64.0434 54.0546C64.345 56.1587 62.4007 58.0122 59.8914 58.0122Z" fill="#9AC99E"/>
<path d="M41.1752 46.8253C41.8613 46.8253 42.4175 46.2667 42.4175 45.5777C42.4175 44.8886 41.8613 44.3301 41.1752 44.3301C40.4891 44.3301 39.9329 44.8886 39.9329 45.5777C39.9329 46.2667 40.4891 46.8253 41.1752 46.8253Z" fill="#373737"/>
<path d="M33.9982 46.6099C36.8259 46.6099 39.1182 44.3078 39.1182 41.468C39.1182 38.6283 36.8259 36.3262 33.9982 36.3262C31.1705 36.3262 28.8782 38.6283 28.8782 41.468C28.8782 44.3078 31.1705 46.6099 33.9982 46.6099Z" fill="#EEF2FA"/>
<path d="M48.3515 46.6099C51.1792 46.6099 53.4715 44.3078 53.4715 41.468C53.4715 38.6283 51.1792 36.3262 48.3515 36.3262C45.5238 36.3262 43.2314 38.6283 43.2314 41.468C43.2314 44.3078 45.5238 46.6099 48.3515 46.6099Z" fill="#EEF2FA"/>
<path d="M34.6182 44.0247C36.0237 44.0247 37.1631 42.8804 37.1631 41.4689C37.1631 40.0574 36.0237 38.9131 34.6182 38.9131C33.2126 38.9131 32.0732 40.0574 32.0732 41.4689C32.0732 42.8804 33.2126 44.0247 34.6182 44.0247Z" fill="#6274A6"/>
<path d="M47.7317 44.0247C49.1372 44.0247 50.2766 42.8804 50.2766 41.4689C50.2766 40.0574 49.1372 38.9131 47.7317 38.9131C46.3262 38.9131 45.1868 40.0574 45.1868 41.4689C45.1868 42.8804 46.3262 44.0247 47.7317 44.0247Z" fill="#6274A6"/>
<path d="M59.9578 57.8196H21.175C18.6702 57.8196 16.732 55.9772 17.0304 53.8858L20.7452 27.9886C21.071 25.7137 23.365 24 26.0889 24H55.0439C57.7677 24 60.0618 25.711 60.3876 27.9886L64.1024 53.8858C64.4035 55.9772 62.4626 57.8196 59.9578 57.8196Z" fill="#9AC99E"/>
<path d="M38.4463 44.3809L40.4255 46.0781L42.5499 44.3809" stroke="#373737" stroke-width="1.09502" stroke-linecap="round" stroke-linejoin="round"/>
<path d="M61.02 32.4344L60.3795 28.0269C60.0455 25.7137 58.0635 24 55.7256 24H25.1664C22.7848 24 20.7809 25.7794 20.4989 28.1446L19.9761 32.4371H61.0173L61.02 32.4344Z" fill="#E0E9F6"/>
<path d="M19.9788 32.4346L22.9873 35.3145C23.5458 35.8483 24.4245 35.8592 24.9967 35.3391L28.1859 32.4346H19.9788Z" fill="#E0E9F6"/>
<path d="M52.8123 32.4346L55.8208 35.3145C56.3793 35.8483 57.258 35.8592 57.8302 35.3391L61.0194 32.4346H52.8123Z" fill="#E0E9F6"/>
<path d="M44.6025 32.4346L47.6111 35.3145C48.1696 35.8483 49.0483 35.8592 49.6204 35.3391L52.8097 32.4346H44.6025Z" fill="#E0E9F6"/>
<path d="M36.3955 32.4346L39.4041 35.3145C39.9625 35.8483 40.8413 35.8592 41.4134 35.3391L44.6027 32.4346H36.3955Z" fill="#E0E9F6"/>
<path d="M28.1858 32.4346L31.1943 35.3145C31.7528 35.8483 32.6315 35.8592 33.2037 35.3391L36.3929 32.4346H28.1858Z" fill="#E0E9F6"/>
<path d="M33.8551 43.5926C35.2582 43.5926 36.3956 42.4552 36.3956 41.0522C36.3956 39.6491 35.2582 38.5117 33.8551 38.5117C32.4521 38.5117 31.3147 39.6491 31.3147 41.0522C31.3147 42.4552 32.4521 43.5926 33.8551 43.5926Z" fill="#6274A6"/>
<path d="M47.143 43.5926C48.546 43.5926 49.6834 42.4552 49.6834 41.0522C49.6834 39.6491 48.546 38.5117 47.143 38.5117C45.7399 38.5117 44.6025 39.6491 44.6025 41.0522C44.6025 42.4552 45.7399 43.5926 47.143 43.5926Z" fill="#6274A6"/>
</svg>
